<svg width="60" height="17" viewBox="0 0 60 17" fill="none" xmlns="http://www.w3.org/2000/svg">
<path d="M0.333496 16.0059V0.537109H5.04443L6.34521 9.96777L7.63721 0.537109H12.3921V16.0059H9.56201V4.86133L7.78662 16.0059H5.00928L3.12842 4.86133V16.0059H0.333496Z" fill="black"/>
<path d="M13.7632 16.0059V0.537109H19.9507V3.52539H16.9097V6.54004H19.8276V9.44922H16.9097V12.9912H20.1528V16.0059H13.7632Z" fill="black"/>
<path d="M24.855 16.1465C23.4429 16.1465 22.4233 15.7949 21.7964 15.0918C21.1753 14.3887 20.8647 13.2695 20.8647 11.7344V10.2227H23.9233V12.1562C23.9233 12.5137 23.9761 12.7949 24.0815 13C24.1929 13.1992 24.3833 13.2988 24.6528 13.2988C24.9341 13.2988 25.1274 13.2168 25.2329 13.0527C25.3442 12.8887 25.3999 12.6191 25.3999 12.2441C25.3999 11.7695 25.353 11.374 25.2593 11.0576C25.1655 10.7354 25.0015 10.4307 24.7671 10.1436C24.5386 9.85059 24.2192 9.51074 23.8091 9.12402L22.4204 7.80566C21.3833 6.82715 20.8647 5.70801 20.8647 4.44824C20.8647 3.12988 21.1694 2.125 21.7788 1.43359C22.394 0.742188 23.2817 0.396484 24.4419 0.396484C25.8599 0.396484 26.8647 0.774414 27.4565 1.53027C28.0542 2.28613 28.353 3.43457 28.353 4.97559H25.2065V3.91211C25.2065 3.70117 25.145 3.53711 25.022 3.41992C24.9048 3.30273 24.7437 3.24414 24.5386 3.24414C24.2925 3.24414 24.1108 3.31445 23.9937 3.45508C23.8823 3.58984 23.8267 3.76562 23.8267 3.98242C23.8267 4.19922 23.8853 4.43359 24.0024 4.68555C24.1196 4.9375 24.3511 5.22754 24.6968 5.55566L26.481 7.26953C26.8384 7.60938 27.1665 7.96973 27.4653 8.35059C27.7642 8.72559 28.0044 9.16504 28.186 9.66895C28.3677 10.167 28.4585 10.7764 28.4585 11.4971C28.4585 12.9502 28.189 14.0898 27.6499 14.916C27.1167 15.7363 26.1851 16.1465 24.855 16.1465Z" fill="black"/>
<path d="M29.0737 16.0059L30.5679 0.537109H35.8149L37.2827 16.0059H34.356L34.1362 13.5098H32.2729L32.0796 16.0059H29.0737ZM32.4927 11.04H33.8989L33.2222 3.17383H33.0815L32.4927 11.04Z" fill="black"/>
<path d="M46.2124 16.1465C44.9058 16.1465 43.895 15.7803 43.1802 15.0479C42.4712 14.3154 42.1167 13.2607 42.1167 11.8838V4.90527C42.1167 3.45215 42.4536 2.33887 43.1274 1.56543C43.8071 0.786133 44.8354 0.396484 46.2124 0.396484C47.5952 0.396484 48.6235 0.786133 49.2974 1.56543C49.9712 2.33887 50.3081 3.45215 50.3081 4.90527V11.8838C50.3081 13.2607 49.9536 14.3154 49.2446 15.0479C48.5356 15.7803 47.5249 16.1465 46.2124 16.1465ZM46.2124 13.2988C46.4526 13.2988 46.6401 13.1904 46.7749 12.9736C46.9097 12.7568 46.9771 12.5137 46.9771 12.2441V4.60645C46.9771 4.24316 46.936 3.92676 46.854 3.65723C46.7778 3.38184 46.564 3.24414 46.2124 3.24414C45.8608 3.24414 45.644 3.38184 45.562 3.65723C45.4858 3.92676 45.4478 4.24316 45.4478 4.60645V12.2441C45.4478 12.5137 45.5151 12.7568 45.6499 12.9736C45.7905 13.1904 45.978 13.2988 46.2124 13.2988Z" fill="black"/>
<path d="M55.3091 16.1465C54.2368 16.1465 53.396 15.9648 52.7866 15.6016C52.1831 15.2324 51.7554 14.6787 51.5034 13.9404C51.2573 13.2021 51.1343 12.2822 51.1343 11.1807V6.99707C51.1343 5.9248 51.1782 4.97852 51.2661 4.1582C51.3599 3.33789 51.5503 2.64941 51.8374 2.09277C52.1245 1.53613 52.5522 1.11426 53.1206 0.827148C53.689 0.540039 54.4478 0.396484 55.397 0.396484C56.0474 0.396484 56.6538 0.510742 57.2163 0.739258C57.7788 0.961914 58.2329 1.29883 58.5786 1.75C58.9243 2.19531 59.0972 2.75488 59.0972 3.42871V5.09863H56.1177V4.78223C56.1177 4.52441 56.103 4.2666 56.0737 4.00879C56.0503 3.75098 55.9858 3.53711 55.8804 3.36719C55.7749 3.19727 55.5962 3.1123 55.3442 3.1123C54.9985 3.1123 54.7583 3.20898 54.6235 3.40234C54.4888 3.58984 54.4214 3.8623 54.4214 4.21973V7.32227C54.5679 7.04688 54.7876 6.82715 55.0806 6.66309C55.3735 6.49316 55.731 6.4082 56.1528 6.4082C57.0083 6.4082 57.6646 6.58105 58.1216 6.92676C58.5845 7.2666 58.9038 7.77637 59.0796 8.45605C59.2554 9.13574 59.3433 9.98535 59.3433 11.0049C59.3433 12.0361 59.2173 12.9385 58.9653 13.7119C58.7134 14.4795 58.2915 15.0771 57.6997 15.5049C57.1138 15.9326 56.3169 16.1465 55.3091 16.1465ZM55.1948 13.2988C55.5581 13.2988 55.7749 13.1465 55.8452 12.8418C55.9155 12.5312 55.9507 12.1357 55.9507 11.6553V10.4072C55.9507 9.56348 55.7134 9.1416 55.2388 9.1416C54.6938 9.1416 54.4214 9.50781 54.4214 10.2402V12.1562C54.4214 12.918 54.6792 13.2988 55.1948 13.2988Z" fill="black"/>
</svg>
