<svg width="44" height="9" viewBox="0 0 44 9" fill="none" xmlns="http://www.w3.org/2000/svg">
<path d="M1.46875 0.0175781H2.95703L5.14844 6.28125L7.33984 0.0175781H8.82812L5.74609 8.54883H4.55078L1.46875 0.0175781ZM0.666016 0.0175781H2.14844L2.41797 6.12305V8.54883H0.666016V0.0175781ZM8.14844 0.0175781H9.63672V8.54883H7.87891V6.12305L8.14844 0.0175781Z" fill="black"/>
<path d="M13.9902 8.66602C13.498 8.66602 13.0566 8.58789 12.666 8.43164C12.2754 8.27148 11.9434 8.05078 11.6699 7.76953C11.4004 7.48828 11.1934 7.16211 11.0488 6.79102C10.9043 6.41602 10.832 6.01758 10.832 5.5957V5.36133C10.832 4.88086 10.9004 4.44141 11.0371 4.04297C11.1738 3.64453 11.3691 3.29883 11.623 3.00586C11.8809 2.71289 12.1934 2.48828 12.5605 2.33203C12.9277 2.17188 13.3418 2.0918 13.8027 2.0918C14.252 2.0918 14.6504 2.16602 14.998 2.31445C15.3457 2.46289 15.6367 2.67383 15.8711 2.94727C16.1094 3.2207 16.2891 3.54883 16.4102 3.93164C16.5312 4.31055 16.5918 4.73242 16.5918 5.19727V5.90039H11.5527V4.77539H14.9336V4.64648C14.9336 4.41211 14.8906 4.20312 14.8047 4.01953C14.7227 3.83203 14.5977 3.68359 14.4297 3.57422C14.2617 3.46484 14.0469 3.41016 13.7852 3.41016C13.5625 3.41016 13.3711 3.45898 13.2109 3.55664C13.0508 3.6543 12.9199 3.79102 12.8184 3.9668C12.7207 4.14258 12.6465 4.34961 12.5957 4.58789C12.5488 4.82227 12.5254 5.08008 12.5254 5.36133V5.5957C12.5254 5.84961 12.5605 6.08398 12.6309 6.29883C12.7051 6.51367 12.8086 6.69922 12.9414 6.85547C13.0781 7.01172 13.2422 7.13281 13.4336 7.21875C13.6289 7.30469 13.8496 7.34766 14.0957 7.34766C14.4004 7.34766 14.6836 7.28906 14.9453 7.17188C15.2109 7.05078 15.4395 6.86914 15.6309 6.62695L16.4512 7.51758C16.3184 7.70898 16.1367 7.89258 15.9062 8.06836C15.6797 8.24414 15.4062 8.38867 15.0859 8.50195C14.7656 8.61133 14.4004 8.66602 13.9902 8.66602Z" fill="black"/>
<path d="M20.9805 6.79688C20.9805 6.67578 20.9453 6.56641 20.875 6.46875C20.8047 6.37109 20.6738 6.28125 20.4824 6.19922C20.2949 6.11328 20.0234 6.03516 19.668 5.96484C19.3477 5.89453 19.0488 5.80664 18.7715 5.70117C18.498 5.5918 18.2598 5.46094 18.0566 5.30859C17.8574 5.15625 17.7012 4.97656 17.5879 4.76953C17.4746 4.55859 17.418 4.31836 17.418 4.04883C17.418 3.7832 17.4746 3.5332 17.5879 3.29883C17.7051 3.06445 17.8711 2.85742 18.0859 2.67773C18.3047 2.49414 18.5703 2.35156 18.8828 2.25C19.1992 2.14453 19.5547 2.0918 19.9492 2.0918C20.5 2.0918 20.9727 2.17969 21.3672 2.35547C21.7656 2.53125 22.0703 2.77344 22.2812 3.08203C22.4961 3.38672 22.6035 3.73438 22.6035 4.125H20.916C20.916 3.96094 20.8809 3.81445 20.8105 3.68555C20.7441 3.55273 20.6387 3.44922 20.4941 3.375C20.3535 3.29688 20.1699 3.25781 19.9434 3.25781C19.7559 3.25781 19.5938 3.29102 19.457 3.35742C19.3203 3.41992 19.2148 3.50586 19.1406 3.61523C19.0703 3.7207 19.0352 3.83789 19.0352 3.9668C19.0352 4.06445 19.0547 4.15234 19.0938 4.23047C19.1367 4.30469 19.2051 4.37305 19.2988 4.43555C19.3926 4.49805 19.5137 4.55664 19.6621 4.61133C19.8145 4.66211 20.002 4.70898 20.2246 4.75195C20.6816 4.8457 21.0898 4.96875 21.4492 5.12109C21.8086 5.26953 22.0938 5.47266 22.3047 5.73047C22.5156 5.98438 22.6211 6.31836 22.6211 6.73242C22.6211 7.01367 22.5586 7.27148 22.4336 7.50586C22.3086 7.74023 22.1289 7.94531 21.8945 8.12109C21.6602 8.29297 21.3789 8.42773 21.0508 8.52539C20.7266 8.61914 20.3613 8.66602 19.9551 8.66602C19.3652 8.66602 18.8652 8.56055 18.4551 8.34961C18.0488 8.13867 17.7402 7.87109 17.5293 7.54688C17.3223 7.21875 17.2188 6.88281 17.2188 6.53906H18.8184C18.8262 6.76953 18.8848 6.95508 18.9941 7.0957C19.1074 7.23633 19.25 7.33789 19.4219 7.40039C19.5977 7.46289 19.7871 7.49414 19.9902 7.49414C20.209 7.49414 20.3906 7.46484 20.5352 7.40625C20.6797 7.34375 20.7891 7.26172 20.8633 7.16016C20.9414 7.05469 20.9805 6.93359 20.9805 6.79688Z" fill="black"/>
<path d="M27.1387 7.11914V4.29492C27.1387 4.0918 27.1055 3.91797 27.0391 3.77344C26.9727 3.625 26.8691 3.50977 26.7285 3.42773C26.5918 3.3457 26.4141 3.30469 26.1953 3.30469C26.0078 3.30469 25.8457 3.33789 25.709 3.4043C25.5723 3.4668 25.4668 3.55859 25.3926 3.67969C25.3184 3.79688 25.2812 3.93555 25.2812 4.0957H23.5938C23.5938 3.82617 23.6562 3.57031 23.7812 3.32812C23.9062 3.08594 24.0879 2.87305 24.3262 2.68945C24.5645 2.50195 24.8477 2.35547 25.1758 2.25C25.5078 2.14453 25.8789 2.0918 26.2891 2.0918C26.7812 2.0918 27.2188 2.17383 27.6016 2.33789C27.9844 2.50195 28.2852 2.74805 28.5039 3.07617C28.7266 3.4043 28.8379 3.81445 28.8379 4.30664V7.01953C28.8379 7.36719 28.8594 7.65234 28.9023 7.875C28.9453 8.09375 29.0078 8.28516 29.0898 8.44922V8.54883H27.3848C27.3027 8.37695 27.2402 8.16211 27.1973 7.9043C27.1582 7.64258 27.1387 7.38086 27.1387 7.11914ZM27.3613 4.6875L27.373 5.64258H26.4297C26.207 5.64258 26.0137 5.66797 25.8496 5.71875C25.6855 5.76953 25.5508 5.8418 25.4453 5.93555C25.3398 6.02539 25.2617 6.13086 25.2109 6.25195C25.1641 6.37305 25.1406 6.50586 25.1406 6.65039C25.1406 6.79492 25.1738 6.92578 25.2402 7.04297C25.3066 7.15625 25.4023 7.24609 25.5273 7.3125C25.6523 7.375 25.7988 7.40625 25.9668 7.40625C26.2207 7.40625 26.4414 7.35547 26.6289 7.25391C26.8164 7.15234 26.9609 7.02734 27.0625 6.87891C27.168 6.73047 27.2227 6.58984 27.2266 6.45703L27.6719 7.17188C27.6094 7.33203 27.5234 7.49805 27.4141 7.66992C27.3086 7.8418 27.1738 8.00391 27.0098 8.15625C26.8457 8.30469 26.6484 8.42773 26.418 8.52539C26.1875 8.61914 25.9141 8.66602 25.5977 8.66602C25.1953 8.66602 24.8301 8.58594 24.502 8.42578C24.1777 8.26172 23.9199 8.03711 23.7285 7.75195C23.541 7.46289 23.4473 7.13477 23.4473 6.76758C23.4473 6.43555 23.5098 6.14062 23.6348 5.88281C23.7598 5.625 23.9434 5.4082 24.1855 5.23242C24.4316 5.05273 24.7383 4.91797 25.1055 4.82812C25.4727 4.73438 25.8984 4.6875 26.3828 4.6875H27.3613Z" fill="black"/>
<path d="M33.5664 6.79688C33.5664 6.67578 33.5312 6.56641 33.4609 6.46875C33.3906 6.37109 33.2598 6.28125 33.0684 6.19922C32.8809 6.11328 32.6094 6.03516 32.2539 5.96484C31.9336 5.89453 31.6348 5.80664 31.3574 5.70117C31.084 5.5918 30.8457 5.46094 30.6426 5.30859C30.4434 5.15625 30.2871 4.97656 30.1738 4.76953C30.0605 4.55859 30.0039 4.31836 30.0039 4.04883C30.0039 3.7832 30.0605 3.5332 30.1738 3.29883C30.291 3.06445 30.457 2.85742 30.6719 2.67773C30.8906 2.49414 31.1562 2.35156 31.4688 2.25C31.7852 2.14453 32.1406 2.0918 32.5352 2.0918C33.0859 2.0918 33.5586 2.17969 33.9531 2.35547C34.3516 2.53125 34.6562 2.77344 34.8672 3.08203C35.082 3.38672 35.1895 3.73438 35.1895 4.125H33.502C33.502 3.96094 33.4668 3.81445 33.3965 3.68555C33.3301 3.55273 33.2246 3.44922 33.0801 3.375C32.9395 3.29688 32.7559 3.25781 32.5293 3.25781C32.3418 3.25781 32.1797 3.29102 32.043 3.35742C31.9062 3.41992 31.8008 3.50586 31.7266 3.61523C31.6562 3.7207 31.6211 3.83789 31.6211 3.9668C31.6211 4.06445 31.6406 4.15234 31.6797 4.23047C31.7227 4.30469 31.791 4.37305 31.8848 4.43555C31.9785 4.49805 32.0996 4.55664 32.248 4.61133C32.4004 4.66211 32.5879 4.70898 32.8105 4.75195C33.2676 4.8457 33.6758 4.96875 34.0352 5.12109C34.3945 5.26953 34.6797 5.47266 34.8906 5.73047C35.1016 5.98438 35.207 6.31836 35.207 6.73242C35.207 7.01367 35.1445 7.27148 35.0195 7.50586C34.8945 7.74023 34.7148 7.94531 34.4805 8.12109C34.2461 8.29297 33.9648 8.42773 33.6367 8.52539C33.3125 8.61914 32.9473 8.66602 32.541 8.66602C31.9512 8.66602 31.4512 8.56055 31.041 8.34961C30.6348 8.13867 30.3262 7.87109 30.1152 7.54688C29.9082 7.21875 29.8047 6.88281 29.8047 6.53906H31.4043C31.4121 6.76953 31.4707 6.95508 31.5801 7.0957C31.6934 7.23633 31.8359 7.33789 32.0078 7.40039C32.1836 7.46289 32.373 7.49414 32.5762 7.49414C32.7949 7.49414 32.9766 7.46484 33.1211 7.40625C33.2656 7.34375 33.375 7.26172 33.4492 7.16016C33.5273 7.05469 33.5664 6.93359 33.5664 6.79688Z" fill="black"/>
<path d="M43.334 0V8.54883H41.6465V1.94531L39.6191 2.58984V1.25977L43.1523 0H43.334Z" fill="black"/>
</svg>
