<svg width="60" height="17" viewBox="0 0 60 17" fill="none" xmlns="http://www.w3.org/2000/svg">
<path d="M0.333496 16.0059V0.537109H5.04443L6.34521 9.96777L7.63721 0.537109H12.3921V16.0059H9.56201V4.86133L7.78662 16.0059H5.00928L3.12842 4.86133V16.0059H0.333496Z" fill="black"/>
<path d="M13.7632 16.0059V0.537109H19.9507V3.52539H16.9097V6.54004H19.8276V9.44922H16.9097V12.9912H20.1528V16.0059H13.7632Z" fill="black"/>
<path d="M24.855 16.1465C23.4429 16.1465 22.4233 15.7949 21.7964 15.0918C21.1753 14.3887 20.8647 13.2695 20.8647 11.7344V10.2227H23.9233V12.1562C23.9233 12.5137 23.9761 12.7949 24.0815 13C24.1929 13.1992 24.3833 13.2988 24.6528 13.2988C24.9341 13.2988 25.1274 13.2168 25.2329 13.0527C25.3442 12.8887 25.3999 12.6191 25.3999 12.2441C25.3999 11.7695 25.353 11.374 25.2593 11.0576C25.1655 10.7354 25.0015 10.4307 24.7671 10.1436C24.5386 9.85059 24.2192 9.51074 23.8091 9.12402L22.4204 7.80566C21.3833 6.82715 20.8647 5.70801 20.8647 4.44824C20.8647 3.12988 21.1694 2.125 21.7788 1.43359C22.394 0.742188 23.2817 0.396484 24.4419 0.396484C25.8599 0.396484 26.8647 0.774414 27.4565 1.53027C28.0542 2.28613 28.353 3.43457 28.353 4.97559H25.2065V3.91211C25.2065 3.70117 25.145 3.53711 25.022 3.41992C24.9048 3.30273 24.7437 3.24414 24.5386 3.24414C24.2925 3.24414 24.1108 3.31445 23.9937 3.45508C23.8823 3.58984 23.8267 3.76562 23.8267 3.98242C23.8267 4.19922 23.8853 4.43359 24.0024 4.68555C24.1196 4.9375 24.3511 5.22754 24.6968 5.55566L26.481 7.26953C26.8384 7.60938 27.1665 7.96973 27.4653 8.35059C27.7642 8.72559 28.0044 9.16504 28.186 9.66895C28.3677 10.167 28.4585 10.7764 28.4585 11.4971C28.4585 12.9502 28.189 14.0898 27.6499 14.916C27.1167 15.7363 26.1851 16.1465 24.855 16.1465Z" fill="black"/>
<path d="M29.0737 16.0059L30.5679 0.537109H35.8149L37.2827 16.0059H34.356L34.1362 13.5098H32.2729L32.0796 16.0059H29.0737ZM32.4927 11.04H33.8989L33.2222 3.17383H33.0815L32.4927 11.04Z" fill="black"/>
<path d="M46.2124 16.1465C44.9058 16.1465 43.895 15.7803 43.1802 15.0479C42.4712 14.3154 42.1167 13.2607 42.1167 11.8838V4.90527C42.1167 3.45215 42.4536 2.33887 43.1274 1.56543C43.8071 0.786133 44.8354 0.396484 46.2124 0.396484C47.5952 0.396484 48.6235 0.786133 49.2974 1.56543C49.9712 2.33887 50.3081 3.45215 50.3081 4.90527V11.8838C50.3081 13.2607 49.9536 14.3154 49.2446 15.0479C48.5356 15.7803 47.5249 16.1465 46.2124 16.1465ZM46.2124 13.2988C46.4526 13.2988 46.6401 13.1904 46.7749 12.9736C46.9097 12.7568 46.9771 12.5137 46.9771 12.2441V4.60645C46.9771 4.24316 46.936 3.92676 46.854 3.65723C46.7778 3.38184 46.564 3.24414 46.2124 3.24414C45.8608 3.24414 45.644 3.38184 45.562 3.65723C45.4858 3.92676 45.4478 4.24316 45.4478 4.60645V12.2441C45.4478 12.5137 45.5151 12.7568 45.6499 12.9736C45.7905 13.1904 45.978 13.2988 46.2124 13.2988Z" fill="black"/>
<path d="M55.0806 16.1465C54.4302 16.1465 53.8237 16.0352 53.2612 15.8125C52.6987 15.584 52.2446 15.2441 51.8989 14.793C51.5532 14.3418 51.3804 13.7822 51.3804 13.1143V11.4443H54.3599V11.7607C54.3599 12.0186 54.3716 12.2764 54.395 12.5342C54.4243 12.792 54.4917 13.0059 54.5972 13.1758C54.7085 13.3457 54.8872 13.4307 55.1333 13.4307C55.479 13.4307 55.7192 13.3369 55.854 13.1494C55.9888 12.9561 56.0562 12.6807 56.0562 12.3232V9.2207C55.9097 9.49023 55.6899 9.70996 55.397 9.87988C55.104 10.0498 54.7466 10.1348 54.3247 10.1348C53.4751 10.1348 52.8188 9.96484 52.356 9.625C51.8931 9.2793 51.5737 8.7666 51.3979 8.08691C51.2222 7.40723 51.1343 6.55762 51.1343 5.53809C51.1343 4.50684 51.2603 3.60742 51.5122 2.83984C51.7642 2.06641 52.1831 1.46582 52.769 1.03809C53.3608 0.610352 54.1606 0.396484 55.1685 0.396484C56.2466 0.396484 57.0874 0.581055 57.6909 0.950195C58.2944 1.31348 58.7192 1.86426 58.9653 2.60254C59.2173 3.33496 59.3433 4.25488 59.3433 5.3623V9.5459C59.3433 10.6182 59.2964 11.5645 59.2026 12.3848C59.1147 13.2051 58.9272 13.8936 58.6401 14.4502C58.353 15.0068 57.9253 15.4287 57.3569 15.7158C56.7886 16.0029 56.0298 16.1465 55.0806 16.1465ZM55.2388 7.40137C55.7837 7.40137 56.0562 7.03516 56.0562 6.30273V4.38672C56.0562 3.625 55.7983 3.24414 55.2827 3.24414C54.9194 3.24414 54.7026 3.39941 54.6323 3.70996C54.562 4.01465 54.5269 4.40723 54.5269 4.8877V6.13574C54.5269 6.97949 54.7642 7.40137 55.2388 7.40137Z" fill="black"/>
</svg>
