<svg width="60" height="17" viewBox="0 0 60 17" fill="none" xmlns="http://www.w3.org/2000/svg">
<path d="M0.333496 15.9883V0.519531H5.04443L6.34521 9.9502L7.63721 0.519531H12.3921V15.9883H9.56201V4.84375L7.78662 15.9883H5.00928L3.12842 4.84375V15.9883H0.333496Z" fill="black"/>
<path d="M13.7632 15.9883V0.519531H19.9507V3.50781H16.9097V6.52246H19.8276V9.43164H16.9097V12.9736H20.1528V15.9883H13.7632Z" fill="black"/>
<path d="M24.855 16.1289C23.4429 16.1289 22.4233 15.7773 21.7964 15.0742C21.1753 14.3711 20.8647 13.252 20.8647 11.7168V10.2051H23.9233V12.1387C23.9233 12.4961 23.9761 12.7773 24.0815 12.9824C24.1929 13.1816 24.3833 13.2812 24.6528 13.2812C24.9341 13.2812 25.1274 13.1992 25.2329 13.0352C25.3442 12.8711 25.3999 12.6016 25.3999 12.2266C25.3999 11.752 25.353 11.3564 25.2593 11.04C25.1655 10.7178 25.0015 10.4131 24.7671 10.126C24.5386 9.83301 24.2192 9.49316 23.8091 9.10645L22.4204 7.78809C21.3833 6.80957 20.8647 5.69043 20.8647 4.43066C20.8647 3.1123 21.1694 2.10742 21.7788 1.41602C22.394 0.724609 23.2817 0.378906 24.4419 0.378906C25.8599 0.378906 26.8647 0.756836 27.4565 1.5127C28.0542 2.26855 28.353 3.41699 28.353 4.95801H25.2065V3.89453C25.2065 3.68359 25.145 3.51953 25.022 3.40234C24.9048 3.28516 24.7437 3.22656 24.5386 3.22656C24.2925 3.22656 24.1108 3.29688 23.9937 3.4375C23.8823 3.57227 23.8267 3.74805 23.8267 3.96484C23.8267 4.18164 23.8853 4.41602 24.0024 4.66797C24.1196 4.91992 24.3511 5.20996 24.6968 5.53809L26.481 7.25195C26.8384 7.5918 27.1665 7.95215 27.4653 8.33301C27.7642 8.70801 28.0044 9.14746 28.186 9.65137C28.3677 10.1494 28.4585 10.7588 28.4585 11.4795C28.4585 12.9326 28.189 14.0723 27.6499 14.8984C27.1167 15.7188 26.1851 16.1289 24.855 16.1289Z" fill="black"/>
<path d="M29.0737 15.9883L30.5679 0.519531H35.8149L37.2827 15.9883H34.356L34.1362 13.4922H32.2729L32.0796 15.9883H29.0737ZM32.4927 11.0225H33.8989L33.2222 3.15625H33.0815L32.4927 11.0225Z" fill="black"/>
<path d="M46.2124 16.1289C44.9058 16.1289 43.895 15.7627 43.1802 15.0303C42.4712 14.2979 42.1167 13.2432 42.1167 11.8662V4.8877C42.1167 3.43457 42.4536 2.32129 43.1274 1.54785C43.8071 0.768555 44.8354 0.378906 46.2124 0.378906C47.5952 0.378906 48.6235 0.768555 49.2974 1.54785C49.9712 2.32129 50.3081 3.43457 50.3081 4.8877V11.8662C50.3081 13.2432 49.9536 14.2979 49.2446 15.0303C48.5356 15.7627 47.5249 16.1289 46.2124 16.1289ZM46.2124 13.2812C46.4526 13.2812 46.6401 13.1729 46.7749 12.9561C46.9097 12.7393 46.9771 12.4961 46.9771 12.2266V4.58887C46.9771 4.22559 46.936 3.90918 46.854 3.63965C46.7778 3.36426 46.564 3.22656 46.2124 3.22656C45.8608 3.22656 45.644 3.36426 45.562 3.63965C45.4858 3.90918 45.4478 4.22559 45.4478 4.58887V12.2266C45.4478 12.4961 45.5151 12.7393 45.6499 12.9561C45.7905 13.1729 45.978 13.2812 46.2124 13.2812Z" fill="black"/>
<path d="M54.9136 16.1641C53.5483 16.1641 52.5552 15.8037 51.9341 15.083C51.313 14.3623 51.0024 13.2754 51.0024 11.8223V10.2051H54.1753V11.8311C54.1753 12.2412 54.2251 12.5898 54.3247 12.877C54.4302 13.1582 54.6616 13.2988 55.019 13.2988C55.3823 13.2988 55.6138 13.1465 55.7134 12.8418C55.813 12.5312 55.8628 12.0273 55.8628 11.3301V10.9434C55.8628 10.4102 55.772 9.94434 55.5903 9.5459C55.4146 9.14746 55.0659 8.94824 54.5444 8.94824C54.48 8.94824 54.4214 8.95117 54.3687 8.95703C54.3218 8.95703 54.2808 8.95996 54.2456 8.96582V6.18848C54.7788 6.18848 55.186 6.07129 55.4673 5.83691C55.7485 5.59668 55.8892 5.19824 55.8892 4.6416C55.8892 3.76855 55.6372 3.33203 55.1333 3.33203C54.8052 3.33203 54.5825 3.46094 54.4653 3.71875C54.354 3.9707 54.2983 4.29297 54.2983 4.68555V5.15137H51.0991C51.0933 5.08105 51.0874 4.99609 51.0815 4.89648C51.0815 4.79688 51.0815 4.7002 51.0815 4.60645C51.0815 3.18848 51.4126 2.14844 52.0747 1.48633C52.7368 0.824219 53.7505 0.493164 55.1157 0.493164C57.7524 0.493164 59.0708 1.86426 59.0708 4.60645C59.0708 5.36816 58.9683 5.99805 58.7632 6.49609C58.5581 6.98828 58.1772 7.33398 57.6206 7.5332C58.0601 7.74414 58.3853 8.01367 58.5962 8.3418C58.8071 8.66992 58.9448 9.07715 59.0093 9.56348C59.0737 10.0498 59.106 10.6387 59.106 11.3301C59.106 12.877 58.7808 14.0693 58.1304 14.9072C57.4858 15.7451 56.4136 16.1641 54.9136 16.1641Z" fill="black"/>
</svg>
