<svg width="60" height="17" viewBox="0 0 60 17" fill="none" xmlns="http://www.w3.org/2000/svg">
<path d="M0.666504 16.019V0.550293H5.37744L6.67822 9.98096L7.97021 0.550293H12.7251V16.019H9.89502V4.87451L8.11963 16.019H5.34229L3.46143 4.87451V16.019H0.666504Z" fill="black"/>
<path d="M14.0962 16.019V0.550293H20.2837V3.53857H17.2427V6.55322H20.1606V9.4624H17.2427V13.0044H20.4858V16.019H14.0962Z" fill="black"/>
<path d="M25.188 16.1597C23.7759 16.1597 22.7563 15.8081 22.1294 15.105C21.5083 14.4019 21.1978 13.2827 21.1978 11.7476V10.2358H24.2563V12.1694C24.2563 12.5269 24.3091 12.8081 24.4146 13.0132C24.5259 13.2124 24.7163 13.312 24.9858 13.312C25.2671 13.312 25.4604 13.23 25.5659 13.0659C25.6772 12.9019 25.7329 12.6323 25.7329 12.2573C25.7329 11.7827 25.686 11.3872 25.5923 11.0708C25.4985 10.7485 25.3345 10.4438 25.1001 10.1567C24.8716 9.86377 24.5522 9.52393 24.1421 9.13721L22.7534 7.81885C21.7163 6.84033 21.1978 5.72119 21.1978 4.46143C21.1978 3.14307 21.5024 2.13818 22.1118 1.44678C22.7271 0.755371 23.6147 0.409668 24.7749 0.409668C26.1929 0.409668 27.1978 0.787598 27.7896 1.54346C28.3872 2.29932 28.686 3.44775 28.686 4.98877H25.5396V3.92529C25.5396 3.71436 25.478 3.55029 25.355 3.43311C25.2378 3.31592 25.0767 3.25732 24.8716 3.25732C24.6255 3.25732 24.4438 3.32764 24.3267 3.46826C24.2153 3.60303 24.1597 3.77881 24.1597 3.99561C24.1597 4.2124 24.2183 4.44678 24.3354 4.69873C24.4526 4.95068 24.6841 5.24072 25.0298 5.56885L26.814 7.28271C27.1714 7.62256 27.4995 7.98291 27.7983 8.36377C28.0972 8.73877 28.3374 9.17822 28.519 9.68213C28.7007 10.1802 28.7915 10.7896 28.7915 11.5103C28.7915 12.9634 28.522 14.103 27.9829 14.9292C27.4497 15.7495 26.5181 16.1597 25.188 16.1597Z" fill="black"/>
<path d="M29.4067 16.019L30.9009 0.550293H36.1479L37.6157 16.019H34.689L34.4692 13.5229H32.606L32.4126 16.019H29.4067ZM32.8257 11.0532H34.2319L33.5552 3.18701H33.4146L32.8257 11.0532Z" fill="black"/>
<path d="M46.5454 16.1597C45.2388 16.1597 44.228 15.7935 43.5132 15.061C42.8042 14.3286 42.4497 13.2739 42.4497 11.897V4.91846C42.4497 3.46533 42.7866 2.35205 43.4604 1.57861C44.1401 0.799316 45.1685 0.409668 46.5454 0.409668C47.9282 0.409668 48.9565 0.799316 49.6304 1.57861C50.3042 2.35205 50.6411 3.46533 50.6411 4.91846V11.897C50.6411 13.2739 50.2866 14.3286 49.5776 15.061C48.8687 15.7935 47.8579 16.1597 46.5454 16.1597ZM46.5454 13.312C46.7856 13.312 46.9731 13.2036 47.1079 12.9868C47.2427 12.77 47.3101 12.5269 47.3101 12.2573V4.61963C47.3101 4.25635 47.269 3.93994 47.187 3.67041C47.1108 3.39502 46.897 3.25732 46.5454 3.25732C46.1938 3.25732 45.9771 3.39502 45.895 3.67041C45.8188 3.93994 45.7808 4.25635 45.7808 4.61963V12.2573C45.7808 12.5269 45.8481 12.77 45.9829 12.9868C46.1235 13.2036 46.311 13.312 46.5454 13.312Z" fill="black"/>
<path d="M55.4399 16.186C53.9868 16.186 52.9497 15.77 52.3286 14.938C51.7075 14.106 51.397 12.9282 51.397 11.4048V10.3765C51.397 9.59131 51.4907 8.95557 51.6782 8.46924C51.8657 7.98291 52.2114 7.61084 52.7153 7.35303C52.2407 7.15967 51.9038 6.8374 51.7046 6.38623C51.5054 5.9292 51.4058 5.36377 51.4058 4.68994V4.28564C51.4058 2.91455 51.7485 1.91846 52.4341 1.29736C53.1255 0.67041 54.1274 0.356934 55.4399 0.356934C56.7876 0.356934 57.7954 0.679199 58.4634 1.32373C59.1313 1.9624 59.4653 2.99072 59.4653 4.40869C59.4653 5.15283 59.3774 5.77686 59.2017 6.28076C59.0259 6.78467 58.6772 7.14795 58.1558 7.37061C58.7124 7.65771 59.0728 8.03564 59.2368 8.50439C59.4009 8.96729 59.4829 9.59131 59.4829 10.3765V11.4048C59.4829 12.9282 59.1724 14.106 58.5513 14.938C57.9302 15.77 56.8931 16.186 55.4399 16.186ZM55.4399 6.05225C55.9849 6.05225 56.2573 5.56006 56.2573 4.57568C56.2573 4.24756 56.1987 3.93701 56.0815 3.64404C55.9702 3.35107 55.7563 3.20459 55.4399 3.20459C55.1235 3.20459 54.9067 3.35107 54.7896 3.64404C54.6782 3.93701 54.6226 4.24756 54.6226 4.57568C54.6226 5.56006 54.895 6.05225 55.4399 6.05225ZM55.4399 13.1274C56.0024 13.1274 56.2837 12.6733 56.2837 11.7651V10.3501C56.2837 9.88135 56.2192 9.51514 56.0903 9.25146C55.9673 8.98779 55.7505 8.85596 55.4399 8.85596C55.1177 8.85596 54.8979 8.98779 54.7808 9.25146C54.6636 9.51514 54.605 9.88135 54.605 10.3501V11.7651C54.605 12.6733 54.8833 13.1274 55.4399 13.1274Z" fill="black"/>
</svg>
