<svg width="46" height="9" viewBox="0 0 46 9" fill="none" xmlns="http://www.w3.org/2000/svg">
<path d="M1.60742 0.123047H3.0957L5.28711 6.38672L7.47852 0.123047H8.9668L5.88477 8.6543H4.68945L1.60742 0.123047ZM0.804688 0.123047H2.28711L2.55664 6.22852V8.6543H0.804688V0.123047ZM8.28711 0.123047H9.77539V8.6543H8.01758V6.22852L8.28711 0.123047Z" fill="black"/>
<path d="M14.1289 8.77148C13.6367 8.77148 13.1953 8.69336 12.8047 8.53711C12.4141 8.37695 12.082 8.15625 11.8086 7.875C11.5391 7.59375 11.332 7.26758 11.1875 6.89648C11.043 6.52148 10.9707 6.12305 10.9707 5.70117V5.4668C10.9707 4.98633 11.0391 4.54688 11.1758 4.14844C11.3125 3.75 11.5078 3.4043 11.7617 3.11133C12.0195 2.81836 12.332 2.59375 12.6992 2.4375C13.0664 2.27734 13.4805 2.19727 13.9414 2.19727C14.3906 2.19727 14.7891 2.27148 15.1367 2.41992C15.4844 2.56836 15.7754 2.7793 16.0098 3.05273C16.248 3.32617 16.4277 3.6543 16.5488 4.03711C16.6699 4.41602 16.7305 4.83789 16.7305 5.30273V6.00586H11.6914V4.88086H15.0723V4.75195C15.0723 4.51758 15.0293 4.30859 14.9434 4.125C14.8613 3.9375 14.7363 3.78906 14.5684 3.67969C14.4004 3.57031 14.1855 3.51562 13.9238 3.51562C13.7012 3.51562 13.5098 3.56445 13.3496 3.66211C13.1895 3.75977 13.0586 3.89648 12.957 4.07227C12.8594 4.24805 12.7852 4.45508 12.7344 4.69336C12.6875 4.92773 12.6641 5.18555 12.6641 5.4668V5.70117C12.6641 5.95508 12.6992 6.18945 12.7695 6.4043C12.8438 6.61914 12.9473 6.80469 13.0801 6.96094C13.2168 7.11719 13.3809 7.23828 13.5723 7.32422C13.7676 7.41016 13.9883 7.45312 14.2344 7.45312C14.5391 7.45312 14.8223 7.39453 15.084 7.27734C15.3496 7.15625 15.5781 6.97461 15.7695 6.73242L16.5898 7.62305C16.457 7.81445 16.2754 7.99805 16.0449 8.17383C15.8184 8.34961 15.5449 8.49414 15.2246 8.60742C14.9043 8.7168 14.5391 8.77148 14.1289 8.77148Z" fill="black"/>
<path d="M21.1191 6.90234C21.1191 6.78125 21.084 6.67188 21.0137 6.57422C20.9434 6.47656 20.8125 6.38672 20.6211 6.30469C20.4336 6.21875 20.1621 6.14062 19.8066 6.07031C19.4863 6 19.1875 5.91211 18.9102 5.80664C18.6367 5.69727 18.3984 5.56641 18.1953 5.41406C17.9961 5.26172 17.8398 5.08203 17.7266 4.875C17.6133 4.66406 17.5566 4.42383 17.5566 4.1543C17.5566 3.88867 17.6133 3.63867 17.7266 3.4043C17.8438 3.16992 18.0098 2.96289 18.2246 2.7832C18.4434 2.59961 18.709 2.45703 19.0215 2.35547C19.3379 2.25 19.6934 2.19727 20.0879 2.19727C20.6387 2.19727 21.1113 2.28516 21.5059 2.46094C21.9043 2.63672 22.209 2.87891 22.4199 3.1875C22.6348 3.49219 22.7422 3.83984 22.7422 4.23047H21.0547C21.0547 4.06641 21.0195 3.91992 20.9492 3.79102C20.8828 3.6582 20.7773 3.55469 20.6328 3.48047C20.4922 3.40234 20.3086 3.36328 20.082 3.36328C19.8945 3.36328 19.7324 3.39648 19.5957 3.46289C19.459 3.52539 19.3535 3.61133 19.2793 3.7207C19.209 3.82617 19.1738 3.94336 19.1738 4.07227C19.1738 4.16992 19.1934 4.25781 19.2324 4.33594C19.2754 4.41016 19.3438 4.47852 19.4375 4.54102C19.5312 4.60352 19.6523 4.66211 19.8008 4.7168C19.9531 4.76758 20.1406 4.81445 20.3633 4.85742C20.8203 4.95117 21.2285 5.07422 21.5879 5.22656C21.9473 5.375 22.2324 5.57812 22.4434 5.83594C22.6543 6.08984 22.7598 6.42383 22.7598 6.83789C22.7598 7.11914 22.6973 7.37695 22.5723 7.61133C22.4473 7.8457 22.2676 8.05078 22.0332 8.22656C21.7988 8.39844 21.5176 8.5332 21.1895 8.63086C20.8652 8.72461 20.5 8.77148 20.0938 8.77148C19.5039 8.77148 19.0039 8.66602 18.5938 8.45508C18.1875 8.24414 17.8789 7.97656 17.668 7.65234C17.4609 7.32422 17.3574 6.98828 17.3574 6.64453H18.957C18.9648 6.875 19.0234 7.06055 19.1328 7.20117C19.2461 7.3418 19.3887 7.44336 19.5605 7.50586C19.7363 7.56836 19.9258 7.59961 20.1289 7.59961C20.3477 7.59961 20.5293 7.57031 20.6738 7.51172C20.8184 7.44922 20.9277 7.36719 21.002 7.26562C21.0801 7.16016 21.1191 7.03906 21.1191 6.90234Z" fill="black"/>
<path d="M27.2773 7.22461V4.40039C27.2773 4.19727 27.2441 4.02344 27.1777 3.87891C27.1113 3.73047 27.0078 3.61523 26.8672 3.5332C26.7305 3.45117 26.5527 3.41016 26.334 3.41016C26.1465 3.41016 25.9844 3.44336 25.8477 3.50977C25.7109 3.57227 25.6055 3.66406 25.5312 3.78516C25.457 3.90234 25.4199 4.04102 25.4199 4.20117H23.7324C23.7324 3.93164 23.7949 3.67578 23.9199 3.43359C24.0449 3.19141 24.2266 2.97852 24.4648 2.79492C24.7031 2.60742 24.9863 2.46094 25.3145 2.35547C25.6465 2.25 26.0176 2.19727 26.4277 2.19727C26.9199 2.19727 27.3574 2.2793 27.7402 2.44336C28.123 2.60742 28.4238 2.85352 28.6426 3.18164C28.8652 3.50977 28.9766 3.91992 28.9766 4.41211V7.125C28.9766 7.47266 28.998 7.75781 29.041 7.98047C29.084 8.19922 29.1465 8.39062 29.2285 8.55469V8.6543H27.5234C27.4414 8.48242 27.3789 8.26758 27.3359 8.00977C27.2969 7.74805 27.2773 7.48633 27.2773 7.22461ZM27.5 4.79297L27.5117 5.74805H26.5684C26.3457 5.74805 26.1523 5.77344 25.9883 5.82422C25.8242 5.875 25.6895 5.94727 25.584 6.04102C25.4785 6.13086 25.4004 6.23633 25.3496 6.35742C25.3027 6.47852 25.2793 6.61133 25.2793 6.75586C25.2793 6.90039 25.3125 7.03125 25.3789 7.14844C25.4453 7.26172 25.541 7.35156 25.666 7.41797C25.791 7.48047 25.9375 7.51172 26.1055 7.51172C26.3594 7.51172 26.5801 7.46094 26.7676 7.35938C26.9551 7.25781 27.0996 7.13281 27.2012 6.98438C27.3066 6.83594 27.3613 6.69531 27.3652 6.5625L27.8105 7.27734C27.748 7.4375 27.6621 7.60352 27.5527 7.77539C27.4473 7.94727 27.3125 8.10938 27.1484 8.26172C26.9844 8.41016 26.7871 8.5332 26.5566 8.63086C26.3262 8.72461 26.0527 8.77148 25.7363 8.77148C25.334 8.77148 24.9688 8.69141 24.6406 8.53125C24.3164 8.36719 24.0586 8.14258 23.8672 7.85742C23.6797 7.56836 23.5859 7.24023 23.5859 6.87305C23.5859 6.54102 23.6484 6.24609 23.7734 5.98828C23.8984 5.73047 24.082 5.51367 24.3242 5.33789C24.5703 5.1582 24.877 5.02344 25.2441 4.93359C25.6113 4.83984 26.0371 4.79297 26.5215 4.79297H27.5Z" fill="black"/>
<path d="M33.7051 6.90234C33.7051 6.78125 33.6699 6.67188 33.5996 6.57422C33.5293 6.47656 33.3984 6.38672 33.207 6.30469C33.0195 6.21875 32.748 6.14062 32.3926 6.07031C32.0723 6 31.7734 5.91211 31.4961 5.80664C31.2227 5.69727 30.9844 5.56641 30.7812 5.41406C30.582 5.26172 30.4258 5.08203 30.3125 4.875C30.1992 4.66406 30.1426 4.42383 30.1426 4.1543C30.1426 3.88867 30.1992 3.63867 30.3125 3.4043C30.4297 3.16992 30.5957 2.96289 30.8105 2.7832C31.0293 2.59961 31.2949 2.45703 31.6074 2.35547C31.9238 2.25 32.2793 2.19727 32.6738 2.19727C33.2246 2.19727 33.6973 2.28516 34.0918 2.46094C34.4902 2.63672 34.7949 2.87891 35.0059 3.1875C35.2207 3.49219 35.3281 3.83984 35.3281 4.23047H33.6406C33.6406 4.06641 33.6055 3.91992 33.5352 3.79102C33.4688 3.6582 33.3633 3.55469 33.2188 3.48047C33.0781 3.40234 32.8945 3.36328 32.668 3.36328C32.4805 3.36328 32.3184 3.39648 32.1816 3.46289C32.0449 3.52539 31.9395 3.61133 31.8652 3.7207C31.7949 3.82617 31.7598 3.94336 31.7598 4.07227C31.7598 4.16992 31.7793 4.25781 31.8184 4.33594C31.8613 4.41016 31.9297 4.47852 32.0234 4.54102C32.1172 4.60352 32.2383 4.66211 32.3867 4.7168C32.5391 4.76758 32.7266 4.81445 32.9492 4.85742C33.4062 4.95117 33.8145 5.07422 34.1738 5.22656C34.5332 5.375 34.8184 5.57812 35.0293 5.83594C35.2402 6.08984 35.3457 6.42383 35.3457 6.83789C35.3457 7.11914 35.2832 7.37695 35.1582 7.61133C35.0332 7.8457 34.8535 8.05078 34.6191 8.22656C34.3848 8.39844 34.1035 8.5332 33.7754 8.63086C33.4512 8.72461 33.0859 8.77148 32.6797 8.77148C32.0898 8.77148 31.5898 8.66602 31.1797 8.45508C30.7734 8.24414 30.4648 7.97656 30.2539 7.65234C30.0469 7.32422 29.9434 6.98828 29.9434 6.64453H31.543C31.5508 6.875 31.6094 7.06055 31.7188 7.20117C31.832 7.3418 31.9746 7.44336 32.1465 7.50586C32.3223 7.56836 32.5117 7.59961 32.7148 7.59961C32.9336 7.59961 33.1152 7.57031 33.2598 7.51172C33.4043 7.44922 33.5137 7.36719 33.5879 7.26562C33.666 7.16016 33.7051 7.03906 33.7051 6.90234Z" fill="black"/>
<path d="M45.1953 7.33594V8.6543H39.3594V7.5293L42.1191 4.57031C42.3965 4.26172 42.6152 3.99023 42.7754 3.75586C42.9355 3.51758 43.0508 3.30469 43.1211 3.11719C43.1953 2.92578 43.2324 2.74414 43.2324 2.57227C43.2324 2.31445 43.1895 2.09375 43.1035 1.91016C43.0176 1.72266 42.8906 1.57812 42.7227 1.47656C42.5586 1.375 42.3555 1.32422 42.1133 1.32422C41.8555 1.32422 41.6328 1.38672 41.4453 1.51172C41.2617 1.63672 41.1211 1.81055 41.0234 2.0332C40.9297 2.25586 40.8828 2.50781 40.8828 2.78906H39.1895C39.1895 2.28125 39.3105 1.81641 39.5527 1.39453C39.7949 0.96875 40.1367 0.630859 40.5781 0.380859C41.0195 0.126953 41.543 0 42.1484 0C42.7461 0 43.25 0.0976562 43.6602 0.292969C44.0742 0.484375 44.3867 0.761719 44.5977 1.125C44.8125 1.48438 44.9199 1.91406 44.9199 2.41406C44.9199 2.69531 44.875 2.9707 44.7852 3.24023C44.6953 3.50586 44.5664 3.77148 44.3984 4.03711C44.2344 4.29883 44.0352 4.56445 43.8008 4.83398C43.5664 5.10352 43.3066 5.38281 43.0215 5.67188L41.5391 7.33594H45.1953Z" fill="black"/>
</svg>
