<svg width="56" height="17" viewBox="0 0 56 17" fill="none" xmlns="http://www.w3.org/2000/svg">
<path d="M0 16.0059V0.537109H4.71094L6.01172 9.96777L7.30371 0.537109H12.0586V16.0059H9.22852V4.86133L7.45312 16.0059H4.67578L2.79492 4.86133V16.0059H0Z" fill="black"/>
<path d="M13.4297 16.0059V0.537109H19.6172V3.52539H16.5762V6.54004H19.4941V9.44922H16.5762V12.9912H19.8193V16.0059H13.4297Z" fill="black"/>
<path d="M24.5215 16.1465C23.1094 16.1465 22.0898 15.7949 21.4629 15.0918C20.8418 14.3887 20.5312 13.2695 20.5312 11.7344V10.2227H23.5898V12.1562C23.5898 12.5137 23.6426 12.7949 23.748 13C23.8594 13.1992 24.0498 13.2988 24.3193 13.2988C24.6006 13.2988 24.7939 13.2168 24.8994 13.0527C25.0107 12.8887 25.0664 12.6191 25.0664 12.2441C25.0664 11.7695 25.0195 11.374 24.9258 11.0576C24.832 10.7354 24.668 10.4307 24.4336 10.1436C24.2051 9.85059 23.8857 9.51074 23.4756 9.12402L22.0869 7.80566C21.0498 6.82715 20.5312 5.70801 20.5312 4.44824C20.5312 3.12988 20.8359 2.125 21.4453 1.43359C22.0605 0.742188 22.9482 0.396484 24.1084 0.396484C25.5264 0.396484 26.5312 0.774414 27.123 1.53027C27.7207 2.28613 28.0195 3.43457 28.0195 4.97559H24.873V3.91211C24.873 3.70117 24.8115 3.53711 24.6885 3.41992C24.5713 3.30273 24.4102 3.24414 24.2051 3.24414C23.959 3.24414 23.7773 3.31445 23.6602 3.45508C23.5488 3.58984 23.4932 3.76562 23.4932 3.98242C23.4932 4.19922 23.5518 4.43359 23.6689 4.68555C23.7861 4.9375 24.0176 5.22754 24.3633 5.55566L26.1475 7.26953C26.5049 7.60938 26.833 7.96973 27.1318 8.35059C27.4307 8.72559 27.6709 9.16504 27.8525 9.66895C28.0342 10.167 28.125 10.7764 28.125 11.4971C28.125 12.9502 27.8555 14.0898 27.3164 14.916C26.7832 15.7363 25.8516 16.1465 24.5215 16.1465Z" fill="black"/>
<path d="M28.7402 16.0059L30.2344 0.537109H35.4814L36.9492 16.0059H34.0225L33.8027 13.5098H31.9395L31.7461 16.0059H28.7402ZM32.1592 11.04H33.5654L32.8887 3.17383H32.748L32.1592 11.04Z" fill="black"/>
<path d="M45.8789 16.1465C44.5723 16.1465 43.5615 15.7803 42.8467 15.0479C42.1377 14.3154 41.7832 13.2607 41.7832 11.8838V4.90527C41.7832 3.45215 42.1201 2.33887 42.7939 1.56543C43.4736 0.786133 44.502 0.396484 45.8789 0.396484C47.2617 0.396484 48.29 0.786133 48.9639 1.56543C49.6377 2.33887 49.9746 3.45215 49.9746 4.90527V11.8838C49.9746 13.2607 49.6201 14.3154 48.9111 15.0479C48.2021 15.7803 47.1914 16.1465 45.8789 16.1465ZM45.8789 13.2988C46.1191 13.2988 46.3066 13.1904 46.4414 12.9736C46.5762 12.7568 46.6436 12.5137 46.6436 12.2441V4.60645C46.6436 4.24316 46.6025 3.92676 46.5205 3.65723C46.4443 3.38184 46.2305 3.24414 45.8789 3.24414C45.5273 3.24414 45.3105 3.38184 45.2285 3.65723C45.1523 3.92676 45.1143 4.24316 45.1143 4.60645V12.2441C45.1143 12.5137 45.1816 12.7568 45.3164 12.9736C45.457 13.1904 45.6445 13.2988 45.8789 13.2988Z" fill="black"/>
<path d="M52.4619 16.0059V4.08789C52.251 4.33984 51.9609 4.54492 51.5918 4.70312C51.2227 4.85547 50.874 4.93164 50.5459 4.93164V2.46191C50.8564 2.41504 51.1904 2.31543 51.5479 2.16309C51.9053 2.00488 52.2363 1.79102 52.541 1.52148C52.8516 1.24609 53.0889 0.915039 53.2529 0.52832H55.7402V16.0059H52.4619Z" fill="black"/>
</svg>
