<svg width="57" height="17" viewBox="0 0 57 17" fill="none" xmlns="http://www.w3.org/2000/svg">
<path d="M0.666504 16.0059V0.537109H5.37744L6.67822 9.96777L7.97021 0.537109H12.7251V16.0059H9.89502V4.86133L8.11963 16.0059H5.34229L3.46143 4.86133V16.0059H0.666504Z" fill="black"/>
<path d="M14.0962 16.0059V0.537109H20.2837V3.52539H17.2427V6.54004H20.1606V9.44922H17.2427V12.9912H20.4858V16.0059H14.0962Z" fill="black"/>
<path d="M25.188 16.1465C23.7759 16.1465 22.7563 15.7949 22.1294 15.0918C21.5083 14.3887 21.1978 13.2695 21.1978 11.7344V10.2227H24.2563V12.1562C24.2563 12.5137 24.3091 12.7949 24.4146 13C24.5259 13.1992 24.7163 13.2988 24.9858 13.2988C25.2671 13.2988 25.4604 13.2168 25.5659 13.0527C25.6772 12.8887 25.7329 12.6191 25.7329 12.2441C25.7329 11.7695 25.686 11.374 25.5923 11.0576C25.4985 10.7354 25.3345 10.4307 25.1001 10.1436C24.8716 9.85059 24.5522 9.51074 24.1421 9.12402L22.7534 7.80566C21.7163 6.82715 21.1978 5.70801 21.1978 4.44824C21.1978 3.12988 21.5024 2.125 22.1118 1.43359C22.7271 0.742188 23.6147 0.396484 24.7749 0.396484C26.1929 0.396484 27.1978 0.774414 27.7896 1.53027C28.3872 2.28613 28.686 3.43457 28.686 4.97559H25.5396V3.91211C25.5396 3.70117 25.478 3.53711 25.355 3.41992C25.2378 3.30273 25.0767 3.24414 24.8716 3.24414C24.6255 3.24414 24.4438 3.31445 24.3267 3.45508C24.2153 3.58984 24.1597 3.76562 24.1597 3.98242C24.1597 4.19922 24.2183 4.43359 24.3354 4.68555C24.4526 4.9375 24.6841 5.22754 25.0298 5.55566L26.814 7.26953C27.1714 7.60938 27.4995 7.96973 27.7983 8.35059C28.0972 8.72559 28.3374 9.16504 28.519 9.66895C28.7007 10.167 28.7915 10.7764 28.7915 11.4971C28.7915 12.9502 28.522 14.0898 27.9829 14.916C27.4497 15.7363 26.5181 16.1465 25.188 16.1465Z" fill="black"/>
<path d="M29.4067 16.0059L30.9009 0.537109H36.1479L37.6157 16.0059H34.689L34.4692 13.5098H32.606L32.4126 16.0059H29.4067ZM32.8257 11.04H34.2319L33.5552 3.17383H33.4146L32.8257 11.04Z" fill="black"/>
<path d="M44.2339 16.0059V4.08789C44.0229 4.33984 43.7329 4.54492 43.3638 4.70312C42.9946 4.85547 42.646 4.93164 42.3179 4.93164V2.46191C42.6284 2.41504 42.9624 2.31543 43.3198 2.16309C43.6772 2.00488 44.0083 1.79102 44.313 1.52148C44.6235 1.24609 44.8608 0.915039 45.0249 0.52832H47.5122V16.0059H44.2339Z" fill="black"/>
<path d="M52.8032 16.0146V13.5625H48.2153V11.1455L51.1421 0.52832H55.9585V10.9785H56.7847V13.5625H55.9585V16.0146H52.8032ZM50.9751 10.9785H52.8032V3.18262L50.9751 10.9785Z" fill="black"/>
</svg>
