<svg width="57" height="17" viewBox="0 0 57 17" fill="none" xmlns="http://www.w3.org/2000/svg">
<path d="M0.333496 16.0059V0.537109H5.04443L6.34521 9.96777L7.63721 0.537109H12.3921V16.0059H9.56201V4.86133L7.78662 16.0059H5.00928L3.12842 4.86133V16.0059H0.333496Z" fill="black"/>
<path d="M13.7632 16.0059V0.537109H19.9507V3.52539H16.9097V6.54004H19.8276V9.44922H16.9097V12.9912H20.1528V16.0059H13.7632Z" fill="black"/>
<path d="M24.855 16.1465C23.4429 16.1465 22.4233 15.7949 21.7964 15.0918C21.1753 14.3887 20.8647 13.2695 20.8647 11.7344V10.2227H23.9233V12.1562C23.9233 12.5137 23.9761 12.7949 24.0815 13C24.1929 13.1992 24.3833 13.2988 24.6528 13.2988C24.9341 13.2988 25.1274 13.2168 25.2329 13.0527C25.3442 12.8887 25.3999 12.6191 25.3999 12.2441C25.3999 11.7695 25.353 11.374 25.2593 11.0576C25.1655 10.7354 25.0015 10.4307 24.7671 10.1436C24.5386 9.85059 24.2192 9.51074 23.8091 9.12402L22.4204 7.80566C21.3833 6.82715 20.8647 5.70801 20.8647 4.44824C20.8647 3.12988 21.1694 2.125 21.7788 1.43359C22.394 0.742188 23.2817 0.396484 24.4419 0.396484C25.8599 0.396484 26.8647 0.774414 27.4565 1.53027C28.0542 2.28613 28.353 3.43457 28.353 4.97559H25.2065V3.91211C25.2065 3.70117 25.145 3.53711 25.022 3.41992C24.9048 3.30273 24.7437 3.24414 24.5386 3.24414C24.2925 3.24414 24.1108 3.31445 23.9937 3.45508C23.8823 3.58984 23.8267 3.76562 23.8267 3.98242C23.8267 4.19922 23.8853 4.43359 24.0024 4.68555C24.1196 4.9375 24.3511 5.22754 24.6968 5.55566L26.481 7.26953C26.8384 7.60938 27.1665 7.96973 27.4653 8.35059C27.7642 8.72559 28.0044 9.16504 28.186 9.66895C28.3677 10.167 28.4585 10.7764 28.4585 11.4971C28.4585 12.9502 28.189 14.0898 27.6499 14.916C27.1167 15.7363 26.1851 16.1465 24.855 16.1465Z" fill="black"/>
<path d="M29.0737 16.0059L30.5679 0.537109H35.8149L37.2827 16.0059H34.356L34.1362 13.5098H32.2729L32.0796 16.0059H29.0737ZM32.4927 11.04H33.8989L33.2222 3.17383H33.0815L32.4927 11.04Z" fill="black"/>
<path d="M43.9009 16.0059V4.08789C43.6899 4.33984 43.3999 4.54492 43.0308 4.70312C42.6616 4.85547 42.313 4.93164 41.9849 4.93164V2.46191C42.2954 2.41504 42.6294 2.31543 42.9868 2.16309C43.3442 2.00488 43.6753 1.79102 43.98 1.52148C44.2905 1.24609 44.5278 0.915039 44.6919 0.52832H47.1792V16.0059H43.9009Z" fill="black"/>
<path d="M48.269 16.0059V15.2676C48.269 14.5 48.3862 13.8115 48.6206 13.2021C48.8608 12.5869 49.1685 12.0186 49.5435 11.4971C49.9185 10.9697 50.314 10.4541 50.73 9.9502C51.1343 9.45801 51.5181 8.9541 51.8813 8.43848C52.2505 7.91699 52.5493 7.35449 52.7778 6.75098C53.0122 6.1416 53.1294 5.45898 53.1294 4.70312C53.1294 4.33984 53.0737 4.0293 52.9624 3.77148C52.8569 3.50781 52.6343 3.37598 52.2944 3.37598C51.7788 3.37598 51.521 3.83594 51.521 4.75586V6.64551H48.269C48.2632 6.51074 48.2544 6.3584 48.2427 6.18848C48.2368 6.01855 48.2339 5.85449 48.2339 5.69629C48.2339 4.58301 48.3511 3.63965 48.5854 2.86621C48.8198 2.08691 49.2329 1.49512 49.8247 1.09082C50.4224 0.680664 51.2603 0.475586 52.3384 0.475586C53.6216 0.475586 54.6177 0.835938 55.3267 1.55664C56.0415 2.27734 56.3989 3.30566 56.3989 4.6416C56.3989 5.5498 56.2817 6.34668 56.0474 7.03223C55.813 7.71191 55.5024 8.33301 55.1157 8.89551C54.729 9.45215 54.3042 10.0088 53.8413 10.5654C53.5132 10.958 53.1938 11.3594 52.8833 11.7695C52.5786 12.1797 52.3091 12.6191 52.0747 13.0879H56.2935V16.0059H48.269Z" fill="black"/>
</svg>
