<svg width="60" height="17" viewBox="0 0 60 17" fill="none" xmlns="http://www.w3.org/2000/svg">
<path d="M0.666504 16.0059V0.537109H5.37744L6.67822 9.96777L7.97021 0.537109H12.7251V16.0059H9.89502V4.86133L8.11963 16.0059H5.34229L3.46143 4.86133V16.0059H0.666504Z" fill="black"/>
<path d="M14.0962 16.0059V0.537109H20.2837V3.52539H17.2427V6.54004H20.1606V9.44922H17.2427V12.9912H20.4858V16.0059H14.0962Z" fill="black"/>
<path d="M25.188 16.1465C23.7759 16.1465 22.7563 15.7949 22.1294 15.0918C21.5083 14.3887 21.1978 13.2695 21.1978 11.7344V10.2227H24.2563V12.1562C24.2563 12.5137 24.3091 12.7949 24.4146 13C24.5259 13.1992 24.7163 13.2988 24.9858 13.2988C25.2671 13.2988 25.4604 13.2168 25.5659 13.0527C25.6772 12.8887 25.7329 12.6191 25.7329 12.2441C25.7329 11.7695 25.686 11.374 25.5923 11.0576C25.4985 10.7354 25.3345 10.4307 25.1001 10.1436C24.8716 9.85059 24.5522 9.51074 24.1421 9.12402L22.7534 7.80566C21.7163 6.82715 21.1978 5.70801 21.1978 4.44824C21.1978 3.12988 21.5024 2.125 22.1118 1.43359C22.7271 0.742188 23.6147 0.396484 24.7749 0.396484C26.1929 0.396484 27.1978 0.774414 27.7896 1.53027C28.3872 2.28613 28.686 3.43457 28.686 4.97559H25.5396V3.91211C25.5396 3.70117 25.478 3.53711 25.355 3.41992C25.2378 3.30273 25.0767 3.24414 24.8716 3.24414C24.6255 3.24414 24.4438 3.31445 24.3267 3.45508C24.2153 3.58984 24.1597 3.76562 24.1597 3.98242C24.1597 4.19922 24.2183 4.43359 24.3354 4.68555C24.4526 4.9375 24.6841 5.22754 25.0298 5.55566L26.814 7.26953C27.1714 7.60938 27.4995 7.96973 27.7983 8.35059C28.0972 8.72559 28.3374 9.16504 28.519 9.66895C28.7007 10.167 28.7915 10.7764 28.7915 11.4971C28.7915 12.9502 28.522 14.0898 27.9829 14.916C27.4497 15.7363 26.5181 16.1465 25.188 16.1465Z" fill="black"/>
<path d="M29.4067 16.0059L30.9009 0.537109H36.1479L37.6157 16.0059H34.689L34.4692 13.5098H32.606L32.4126 16.0059H29.4067ZM32.8257 11.04H34.2319L33.5552 3.17383H33.4146L32.8257 11.04Z" fill="black"/>
<path d="M46.5454 16.1465C45.2388 16.1465 44.228 15.7803 43.5132 15.0479C42.8042 14.3154 42.4497 13.2607 42.4497 11.8838V4.90527C42.4497 3.45215 42.7866 2.33887 43.4604 1.56543C44.1401 0.786133 45.1685 0.396484 46.5454 0.396484C47.9282 0.396484 48.9565 0.786133 49.6304 1.56543C50.3042 2.33887 50.6411 3.45215 50.6411 4.90527V11.8838C50.6411 13.2607 50.2866 14.3154 49.5776 15.0479C48.8687 15.7803 47.8579 16.1465 46.5454 16.1465ZM46.5454 13.2988C46.7856 13.2988 46.9731 13.1904 47.1079 12.9736C47.2427 12.7568 47.3101 12.5137 47.3101 12.2441V4.60645C47.3101 4.24316 47.269 3.92676 47.187 3.65723C47.1108 3.38184 46.897 3.24414 46.5454 3.24414C46.1938 3.24414 45.9771 3.38184 45.895 3.65723C45.8188 3.92676 45.7808 4.24316 45.7808 4.60645V12.2441C45.7808 12.5137 45.8481 12.7568 45.9829 12.9736C46.1235 13.1904 46.311 13.2988 46.5454 13.2988Z" fill="black"/>
<path d="M51.5376 16.0059V15.2676C51.5376 14.5 51.6548 13.8115 51.8892 13.2021C52.1294 12.5869 52.437 12.0186 52.812 11.4971C53.187 10.9697 53.5825 10.4541 53.9985 9.9502C54.4028 9.45801 54.7866 8.9541 55.1499 8.43848C55.519 7.91699 55.8179 7.35449 56.0464 6.75098C56.2808 6.1416 56.3979 5.45898 56.3979 4.70312C56.3979 4.33984 56.3423 4.0293 56.231 3.77148C56.1255 3.50781 55.9028 3.37598 55.563 3.37598C55.0474 3.37598 54.7896 3.83594 54.7896 4.75586V6.64551H51.5376C51.5317 6.51074 51.5229 6.3584 51.5112 6.18848C51.5054 6.01855 51.5024 5.85449 51.5024 5.69629C51.5024 4.58301 51.6196 3.63965 51.854 2.86621C52.0884 2.08691 52.5015 1.49512 53.0933 1.09082C53.6909 0.680664 54.5288 0.475586 55.6069 0.475586C56.8901 0.475586 57.8862 0.835938 58.5952 1.55664C59.3101 2.27734 59.6675 3.30566 59.6675 4.6416C59.6675 5.5498 59.5503 6.34668 59.3159 7.03223C59.0815 7.71191 58.771 8.33301 58.3843 8.89551C57.9976 9.45215 57.5728 10.0088 57.1099 10.5654C56.7817 10.958 56.4624 11.3594 56.1519 11.7695C55.8472 12.1797 55.5776 12.6191 55.3433 13.0879H59.562V16.0059H51.5376Z" fill="black"/>
</svg>
