<svg width="46" height="9" viewBox="0 0 46 9" fill="none" xmlns="http://www.w3.org/2000/svg">
<path d="M1.66016 0.123047H3.14844L5.33984 6.38672L7.53125 0.123047H9.01953L5.9375 8.6543H4.74219L1.66016 0.123047ZM0.857422 0.123047H2.33984L2.60938 6.22852V8.6543H0.857422V0.123047ZM8.33984 0.123047H9.82812V8.6543H8.07031V6.22852L8.33984 0.123047Z" fill="black"/>
<path d="M14.1816 8.77148C13.6895 8.77148 13.248 8.69336 12.8574 8.53711C12.4668 8.37695 12.1348 8.15625 11.8613 7.875C11.5918 7.59375 11.3848 7.26758 11.2402 6.89648C11.0957 6.52148 11.0234 6.12305 11.0234 5.70117V5.4668C11.0234 4.98633 11.0918 4.54688 11.2285 4.14844C11.3652 3.75 11.5605 3.4043 11.8145 3.11133C12.0723 2.81836 12.3848 2.59375 12.752 2.4375C13.1191 2.27734 13.5332 2.19727 13.9941 2.19727C14.4434 2.19727 14.8418 2.27148 15.1895 2.41992C15.5371 2.56836 15.8281 2.7793 16.0625 3.05273C16.3008 3.32617 16.4805 3.6543 16.6016 4.03711C16.7227 4.41602 16.7832 4.83789 16.7832 5.30273V6.00586H11.7441V4.88086H15.125V4.75195C15.125 4.51758 15.082 4.30859 14.9961 4.125C14.9141 3.9375 14.7891 3.78906 14.6211 3.67969C14.4531 3.57031 14.2383 3.51562 13.9766 3.51562C13.7539 3.51562 13.5625 3.56445 13.4023 3.66211C13.2422 3.75977 13.1113 3.89648 13.0098 4.07227C12.9121 4.24805 12.8379 4.45508 12.7871 4.69336C12.7402 4.92773 12.7168 5.18555 12.7168 5.4668V5.70117C12.7168 5.95508 12.752 6.18945 12.8223 6.4043C12.8965 6.61914 13 6.80469 13.1328 6.96094C13.2695 7.11719 13.4336 7.23828 13.625 7.32422C13.8203 7.41016 14.041 7.45312 14.2871 7.45312C14.5918 7.45312 14.875 7.39453 15.1367 7.27734C15.4023 7.15625 15.6309 6.97461 15.8223 6.73242L16.6426 7.62305C16.5098 7.81445 16.3281 7.99805 16.0977 8.17383C15.8711 8.34961 15.5977 8.49414 15.2773 8.60742C14.957 8.7168 14.5918 8.77148 14.1816 8.77148Z" fill="black"/>
<path d="M21.1719 6.90234C21.1719 6.78125 21.1367 6.67188 21.0664 6.57422C20.9961 6.47656 20.8652 6.38672 20.6738 6.30469C20.4863 6.21875 20.2148 6.14062 19.8594 6.07031C19.5391 6 19.2402 5.91211 18.9629 5.80664C18.6895 5.69727 18.4512 5.56641 18.248 5.41406C18.0488 5.26172 17.8926 5.08203 17.7793 4.875C17.666 4.66406 17.6094 4.42383 17.6094 4.1543C17.6094 3.88867 17.666 3.63867 17.7793 3.4043C17.8965 3.16992 18.0625 2.96289 18.2773 2.7832C18.4961 2.59961 18.7617 2.45703 19.0742 2.35547C19.3906 2.25 19.7461 2.19727 20.1406 2.19727C20.6914 2.19727 21.1641 2.28516 21.5586 2.46094C21.957 2.63672 22.2617 2.87891 22.4727 3.1875C22.6875 3.49219 22.7949 3.83984 22.7949 4.23047H21.1074C21.1074 4.06641 21.0723 3.91992 21.002 3.79102C20.9355 3.6582 20.8301 3.55469 20.6855 3.48047C20.5449 3.40234 20.3613 3.36328 20.1348 3.36328C19.9473 3.36328 19.7852 3.39648 19.6484 3.46289C19.5117 3.52539 19.4062 3.61133 19.332 3.7207C19.2617 3.82617 19.2266 3.94336 19.2266 4.07227C19.2266 4.16992 19.2461 4.25781 19.2852 4.33594C19.3281 4.41016 19.3965 4.47852 19.4902 4.54102C19.584 4.60352 19.7051 4.66211 19.8535 4.7168C20.0059 4.76758 20.1934 4.81445 20.416 4.85742C20.873 4.95117 21.2812 5.07422 21.6406 5.22656C22 5.375 22.2852 5.57812 22.4961 5.83594C22.707 6.08984 22.8125 6.42383 22.8125 6.83789C22.8125 7.11914 22.75 7.37695 22.625 7.61133C22.5 7.8457 22.3203 8.05078 22.0859 8.22656C21.8516 8.39844 21.5703 8.5332 21.2422 8.63086C20.918 8.72461 20.5527 8.77148 20.1465 8.77148C19.5566 8.77148 19.0566 8.66602 18.6465 8.45508C18.2402 8.24414 17.9316 7.97656 17.7207 7.65234C17.5137 7.32422 17.4102 6.98828 17.4102 6.64453H19.0098C19.0176 6.875 19.0762 7.06055 19.1855 7.20117C19.2988 7.3418 19.4414 7.44336 19.6133 7.50586C19.7891 7.56836 19.9785 7.59961 20.1816 7.59961C20.4004 7.59961 20.582 7.57031 20.7266 7.51172C20.8711 7.44922 20.9805 7.36719 21.0547 7.26562C21.1328 7.16016 21.1719 7.03906 21.1719 6.90234Z" fill="black"/>
<path d="M27.3301 7.22461V4.40039C27.3301 4.19727 27.2969 4.02344 27.2305 3.87891C27.1641 3.73047 27.0605 3.61523 26.9199 3.5332C26.7832 3.45117 26.6055 3.41016 26.3867 3.41016C26.1992 3.41016 26.0371 3.44336 25.9004 3.50977C25.7637 3.57227 25.6582 3.66406 25.584 3.78516C25.5098 3.90234 25.4727 4.04102 25.4727 4.20117H23.7852C23.7852 3.93164 23.8477 3.67578 23.9727 3.43359C24.0977 3.19141 24.2793 2.97852 24.5176 2.79492C24.7559 2.60742 25.0391 2.46094 25.3672 2.35547C25.6992 2.25 26.0703 2.19727 26.4805 2.19727C26.9727 2.19727 27.4102 2.2793 27.793 2.44336C28.1758 2.60742 28.4766 2.85352 28.6953 3.18164C28.918 3.50977 29.0293 3.91992 29.0293 4.41211V7.125C29.0293 7.47266 29.0508 7.75781 29.0938 7.98047C29.1367 8.19922 29.1992 8.39062 29.2812 8.55469V8.6543H27.5762C27.4941 8.48242 27.4316 8.26758 27.3887 8.00977C27.3496 7.74805 27.3301 7.48633 27.3301 7.22461ZM27.5527 4.79297L27.5645 5.74805H26.6211C26.3984 5.74805 26.2051 5.77344 26.041 5.82422C25.877 5.875 25.7422 5.94727 25.6367 6.04102C25.5312 6.13086 25.4531 6.23633 25.4023 6.35742C25.3555 6.47852 25.332 6.61133 25.332 6.75586C25.332 6.90039 25.3652 7.03125 25.4316 7.14844C25.498 7.26172 25.5938 7.35156 25.7188 7.41797C25.8438 7.48047 25.9902 7.51172 26.1582 7.51172C26.4121 7.51172 26.6328 7.46094 26.8203 7.35938C27.0078 7.25781 27.1523 7.13281 27.2539 6.98438C27.3594 6.83594 27.4141 6.69531 27.418 6.5625L27.8633 7.27734C27.8008 7.4375 27.7148 7.60352 27.6055 7.77539C27.5 7.94727 27.3652 8.10938 27.2012 8.26172C27.0371 8.41016 26.8398 8.5332 26.6094 8.63086C26.3789 8.72461 26.1055 8.77148 25.7891 8.77148C25.3867 8.77148 25.0215 8.69141 24.6934 8.53125C24.3691 8.36719 24.1113 8.14258 23.9199 7.85742C23.7324 7.56836 23.6387 7.24023 23.6387 6.87305C23.6387 6.54102 23.7012 6.24609 23.8262 5.98828C23.9512 5.73047 24.1348 5.51367 24.377 5.33789C24.623 5.1582 24.9297 5.02344 25.2969 4.93359C25.6641 4.83984 26.0898 4.79297 26.5742 4.79297H27.5527Z" fill="black"/>
<path d="M33.7578 6.90234C33.7578 6.78125 33.7227 6.67188 33.6523 6.57422C33.582 6.47656 33.4512 6.38672 33.2598 6.30469C33.0723 6.21875 32.8008 6.14062 32.4453 6.07031C32.125 6 31.8262 5.91211 31.5488 5.80664C31.2754 5.69727 31.0371 5.56641 30.834 5.41406C30.6348 5.26172 30.4785 5.08203 30.3652 4.875C30.252 4.66406 30.1953 4.42383 30.1953 4.1543C30.1953 3.88867 30.252 3.63867 30.3652 3.4043C30.4824 3.16992 30.6484 2.96289 30.8633 2.7832C31.082 2.59961 31.3477 2.45703 31.6602 2.35547C31.9766 2.25 32.332 2.19727 32.7266 2.19727C33.2773 2.19727 33.75 2.28516 34.1445 2.46094C34.543 2.63672 34.8477 2.87891 35.0586 3.1875C35.2734 3.49219 35.3809 3.83984 35.3809 4.23047H33.6934C33.6934 4.06641 33.6582 3.91992 33.5879 3.79102C33.5215 3.6582 33.416 3.55469 33.2715 3.48047C33.1309 3.40234 32.9473 3.36328 32.7207 3.36328C32.5332 3.36328 32.3711 3.39648 32.2344 3.46289C32.0977 3.52539 31.9922 3.61133 31.918 3.7207C31.8477 3.82617 31.8125 3.94336 31.8125 4.07227C31.8125 4.16992 31.832 4.25781 31.8711 4.33594C31.9141 4.41016 31.9824 4.47852 32.0762 4.54102C32.1699 4.60352 32.291 4.66211 32.4395 4.7168C32.5918 4.76758 32.7793 4.81445 33.002 4.85742C33.459 4.95117 33.8672 5.07422 34.2266 5.22656C34.5859 5.375 34.8711 5.57812 35.082 5.83594C35.293 6.08984 35.3984 6.42383 35.3984 6.83789C35.3984 7.11914 35.3359 7.37695 35.2109 7.61133C35.0859 7.8457 34.9062 8.05078 34.6719 8.22656C34.4375 8.39844 34.1562 8.5332 33.8281 8.63086C33.5039 8.72461 33.1387 8.77148 32.7324 8.77148C32.1426 8.77148 31.6426 8.66602 31.2324 8.45508C30.8262 8.24414 30.5176 7.97656 30.3066 7.65234C30.0996 7.32422 29.9961 6.98828 29.9961 6.64453H31.5957C31.6035 6.875 31.6621 7.06055 31.7715 7.20117C31.8848 7.3418 32.0273 7.44336 32.1992 7.50586C32.375 7.56836 32.5645 7.59961 32.7676 7.59961C32.9863 7.59961 33.168 7.57031 33.3125 7.51172C33.457 7.44922 33.5664 7.36719 33.6406 7.26562C33.7188 7.16016 33.7578 7.03906 33.7578 6.90234Z" fill="black"/>
<path d="M41.1406 3.65625H42.043C42.332 3.65625 42.5703 3.60742 42.7578 3.50977C42.9453 3.4082 43.084 3.26758 43.1738 3.08789C43.2676 2.9043 43.3145 2.69141 43.3145 2.44922C43.3145 2.23047 43.2715 2.03711 43.1855 1.86914C43.1035 1.69727 42.9766 1.56445 42.8047 1.4707C42.6328 1.37305 42.416 1.32422 42.1543 1.32422C41.9473 1.32422 41.7559 1.36523 41.5801 1.44727C41.4043 1.5293 41.2637 1.64453 41.1582 1.79297C41.0527 1.94141 41 2.12109 41 2.33203H39.3066C39.3066 1.86328 39.4316 1.45508 39.6816 1.10742C39.9355 0.759766 40.2754 0.488281 40.7012 0.292969C41.127 0.0976562 41.5957 0 42.1074 0C42.6855 0 43.1914 0.09375 43.625 0.28125C44.0586 0.464844 44.3965 0.736328 44.6387 1.0957C44.8809 1.45508 45.002 1.90039 45.002 2.43164C45.002 2.70117 44.9395 2.96289 44.8145 3.2168C44.6895 3.4668 44.5098 3.69336 44.2754 3.89648C44.0449 4.0957 43.7637 4.25586 43.4316 4.37695C43.0996 4.49414 42.7266 4.55273 42.3125 4.55273H41.1406V3.65625ZM41.1406 4.93945V4.06641H42.3125C42.7773 4.06641 43.1855 4.11914 43.5371 4.22461C43.8887 4.33008 44.1836 4.48242 44.4219 4.68164C44.6602 4.87695 44.8398 5.10938 44.9609 5.37891C45.082 5.64453 45.1426 5.93945 45.1426 6.26367C45.1426 6.66211 45.0664 7.01758 44.9141 7.33008C44.7617 7.63867 44.5469 7.90039 44.2695 8.11523C43.9961 8.33008 43.6758 8.49414 43.3086 8.60742C42.9414 8.7168 42.541 8.77148 42.1074 8.77148C41.748 8.77148 41.3945 8.72266 41.0469 8.625C40.7031 8.52344 40.3906 8.37305 40.1094 8.17383C39.832 7.9707 39.6094 7.7168 39.4414 7.41211C39.2773 7.10352 39.1953 6.73828 39.1953 6.31641H40.8887C40.8887 6.53516 40.9434 6.73047 41.0527 6.90234C41.1621 7.07422 41.3125 7.20898 41.5039 7.30664C41.6992 7.4043 41.916 7.45312 42.1543 7.45312C42.4238 7.45312 42.6543 7.4043 42.8457 7.30664C43.041 7.20508 43.1895 7.06445 43.291 6.88477C43.3965 6.70117 43.4492 6.48828 43.4492 6.24609C43.4492 5.93359 43.3926 5.68359 43.2793 5.49609C43.166 5.30469 43.0039 5.16406 42.793 5.07422C42.582 4.98438 42.332 4.93945 42.043 4.93945H41.1406Z" fill="black"/>
</svg>
