<svg width="56" height="17" viewBox="0 0 56 17" fill="none" xmlns="http://www.w3.org/2000/svg">
<path d="M0 16.0059V0.537109H4.71094L6.01172 9.96777L7.30371 0.537109H12.0586V16.0059H9.22852V4.86133L7.45312 16.0059H4.67578L2.79492 4.86133V16.0059H0Z" fill="black"/>
<path d="M13.4297 16.0059V0.537109H19.6172V3.52539H16.5762V6.54004H19.4941V9.44922H16.5762V12.9912H19.8193V16.0059H13.4297Z" fill="black"/>
<path d="M24.5215 16.1465C23.1094 16.1465 22.0898 15.7949 21.4629 15.0918C20.8418 14.3887 20.5312 13.2695 20.5312 11.7344V10.2227H23.5898V12.1562C23.5898 12.5137 23.6426 12.7949 23.748 13C23.8594 13.1992 24.0498 13.2988 24.3193 13.2988C24.6006 13.2988 24.7939 13.2168 24.8994 13.0527C25.0107 12.8887 25.0664 12.6191 25.0664 12.2441C25.0664 11.7695 25.0195 11.374 24.9258 11.0576C24.832 10.7354 24.668 10.4307 24.4336 10.1436C24.2051 9.85059 23.8857 9.51074 23.4756 9.12402L22.0869 7.80566C21.0498 6.82715 20.5312 5.70801 20.5312 4.44824C20.5312 3.12988 20.8359 2.125 21.4453 1.43359C22.0605 0.742188 22.9482 0.396484 24.1084 0.396484C25.5264 0.396484 26.5312 0.774414 27.123 1.53027C27.7207 2.28613 28.0195 3.43457 28.0195 4.97559H24.873V3.91211C24.873 3.70117 24.8115 3.53711 24.6885 3.41992C24.5713 3.30273 24.4102 3.24414 24.2051 3.24414C23.959 3.24414 23.7773 3.31445 23.6602 3.45508C23.5488 3.58984 23.4932 3.76562 23.4932 3.98242C23.4932 4.19922 23.5518 4.43359 23.6689 4.68555C23.7861 4.9375 24.0176 5.22754 24.3633 5.55566L26.1475 7.26953C26.5049 7.60938 26.833 7.96973 27.1318 8.35059C27.4307 8.72559 27.6709 9.16504 27.8525 9.66895C28.0342 10.167 28.125 10.7764 28.125 11.4971C28.125 12.9502 27.8555 14.0898 27.3164 14.916C26.7832 15.7363 25.8516 16.1465 24.5215 16.1465Z" fill="black"/>
<path d="M28.7402 16.0059L30.2344 0.537109H35.4814L36.9492 16.0059H34.0225L33.8027 13.5098H31.9395L31.7461 16.0059H28.7402ZM32.1592 11.04H33.5654L32.8887 3.17383H32.748L32.1592 11.04Z" fill="black"/>
<path d="M43.5674 16.0059V4.08789C43.3564 4.33984 43.0664 4.54492 42.6973 4.70312C42.3281 4.85547 41.9795 4.93164 41.6514 4.93164V2.46191C41.9619 2.41504 42.2959 2.31543 42.6533 2.16309C43.0107 2.00488 43.3418 1.79102 43.6465 1.52148C43.957 1.24609 44.1943 0.915039 44.3584 0.52832H46.8457V16.0059H43.5674Z" fill="black"/>
<path d="M51.8379 16.1465C50.5312 16.1465 49.5205 15.7803 48.8057 15.0479C48.0967 14.3154 47.7422 13.2607 47.7422 11.8838V4.90527C47.7422 3.45215 48.0791 2.33887 48.7529 1.56543C49.4326 0.786133 50.4609 0.396484 51.8379 0.396484C53.2207 0.396484 54.249 0.786133 54.9229 1.56543C55.5967 2.33887 55.9336 3.45215 55.9336 4.90527V11.8838C55.9336 13.2607 55.5791 14.3154 54.8701 15.0479C54.1611 15.7803 53.1504 16.1465 51.8379 16.1465ZM51.8379 13.2988C52.0781 13.2988 52.2656 13.1904 52.4004 12.9736C52.5352 12.7568 52.6025 12.5137 52.6025 12.2441V4.60645C52.6025 4.24316 52.5615 3.92676 52.4795 3.65723C52.4033 3.38184 52.1895 3.24414 51.8379 3.24414C51.4863 3.24414 51.2695 3.38184 51.1875 3.65723C51.1113 3.92676 51.0732 4.24316 51.0732 4.60645V12.2441C51.0732 12.5137 51.1406 12.7568 51.2754 12.9736C51.416 13.1904 51.6035 13.2988 51.8379 13.2988Z" fill="black"/>
</svg>
