<svg width="56" height="17" viewBox="0 0 56 17" fill="none" xmlns="http://www.w3.org/2000/svg">
<path d="M0 15.9883V0.519531H4.71094L6.01172 9.9502L7.30371 0.519531H12.0586V15.9883H9.22852V4.84375L7.45312 15.9883H4.67578L2.79492 4.84375V15.9883H0Z" fill="black"/>
<path d="M13.4297 15.9883V0.519531H19.6172V3.50781H16.5762V6.52246H19.4941V9.43164H16.5762V12.9736H19.8193V15.9883H13.4297Z" fill="black"/>
<path d="M24.5215 16.1289C23.1094 16.1289 22.0898 15.7773 21.4629 15.0742C20.8418 14.3711 20.5312 13.252 20.5312 11.7168V10.2051H23.5898V12.1387C23.5898 12.4961 23.6426 12.7773 23.748 12.9824C23.8594 13.1816 24.0498 13.2812 24.3193 13.2812C24.6006 13.2812 24.7939 13.1992 24.8994 13.0352C25.0107 12.8711 25.0664 12.6016 25.0664 12.2266C25.0664 11.752 25.0195 11.3564 24.9258 11.04C24.832 10.7178 24.668 10.4131 24.4336 10.126C24.2051 9.83301 23.8857 9.49316 23.4756 9.10645L22.0869 7.78809C21.0498 6.80957 20.5312 5.69043 20.5312 4.43066C20.5312 3.1123 20.8359 2.10742 21.4453 1.41602C22.0605 0.724609 22.9482 0.378906 24.1084 0.378906C25.5264 0.378906 26.5312 0.756836 27.123 1.5127C27.7207 2.26855 28.0195 3.41699 28.0195 4.95801H24.873V3.89453C24.873 3.68359 24.8115 3.51953 24.6885 3.40234C24.5713 3.28516 24.4102 3.22656 24.2051 3.22656C23.959 3.22656 23.7773 3.29688 23.6602 3.4375C23.5488 3.57227 23.4932 3.74805 23.4932 3.96484C23.4932 4.18164 23.5518 4.41602 23.6689 4.66797C23.7861 4.91992 24.0176 5.20996 24.3633 5.53809L26.1475 7.25195C26.5049 7.5918 26.833 7.95215 27.1318 8.33301C27.4307 8.70801 27.6709 9.14746 27.8525 9.65137C28.0342 10.1494 28.125 10.7588 28.125 11.4795C28.125 12.9326 27.8555 14.0723 27.3164 14.8984C26.7832 15.7188 25.8516 16.1289 24.5215 16.1289Z" fill="black"/>
<path d="M28.7402 15.9883L30.2344 0.519531H35.4814L36.9492 15.9883H34.0225L33.8027 13.4922H31.9395L31.7461 15.9883H28.7402ZM32.1592 11.0225H33.5654L32.8887 3.15625H32.748L32.1592 11.0225Z" fill="black"/>
<path d="M43.5674 15.9883V4.07031C43.3564 4.32227 43.0664 4.52734 42.6973 4.68555C42.3281 4.83789 41.9795 4.91406 41.6514 4.91406V2.44434C41.9619 2.39746 42.2959 2.29785 42.6533 2.14551C43.0107 1.9873 43.3418 1.77344 43.6465 1.50391C43.957 1.22852 44.1943 0.897461 44.3584 0.510742H46.8457V15.9883H43.5674Z" fill="black"/>
<path d="M51.6445 16.1641C50.2793 16.1641 49.2861 15.8037 48.665 15.083C48.0439 14.3623 47.7334 13.2754 47.7334 11.8223V10.2051H50.9062V11.8311C50.9062 12.2412 50.9561 12.5898 51.0557 12.877C51.1611 13.1582 51.3926 13.2988 51.75 13.2988C52.1133 13.2988 52.3447 13.1465 52.4443 12.8418C52.5439 12.5312 52.5938 12.0273 52.5938 11.3301V10.9434C52.5938 10.4102 52.5029 9.94434 52.3213 9.5459C52.1455 9.14746 51.7969 8.94824 51.2754 8.94824C51.2109 8.94824 51.1523 8.95117 51.0996 8.95703C51.0527 8.95703 51.0117 8.95996 50.9766 8.96582V6.18848C51.5098 6.18848 51.917 6.07129 52.1982 5.83691C52.4795 5.59668 52.6201 5.19824 52.6201 4.6416C52.6201 3.76855 52.3682 3.33203 51.8643 3.33203C51.5361 3.33203 51.3135 3.46094 51.1963 3.71875C51.085 3.9707 51.0293 4.29297 51.0293 4.68555V5.15137H47.8301C47.8242 5.08105 47.8184 4.99609 47.8125 4.89648C47.8125 4.79688 47.8125 4.7002 47.8125 4.60645C47.8125 3.18848 48.1436 2.14844 48.8057 1.48633C49.4678 0.824219 50.4814 0.493164 51.8467 0.493164C54.4834 0.493164 55.8018 1.86426 55.8018 4.60645C55.8018 5.36816 55.6992 5.99805 55.4941 6.49609C55.2891 6.98828 54.9082 7.33398 54.3516 7.5332C54.791 7.74414 55.1162 8.01367 55.3271 8.3418C55.5381 8.66992 55.6758 9.07715 55.7402 9.56348C55.8047 10.0498 55.8369 10.6387 55.8369 11.3301C55.8369 12.877 55.5117 14.0693 54.8613 14.9072C54.2168 15.7451 53.1445 16.1641 51.6445 16.1641Z" fill="black"/>
</svg>
