<svg width="60" height="17" viewBox="0 0 60 17" fill="none" xmlns="http://www.w3.org/2000/svg">
<path d="M0.666504 15.9663V0.497559H5.37744L6.67822 9.92822L7.97021 0.497559H12.7251V15.9663H9.89502V4.82178L8.11963 15.9663H5.34229L3.46143 4.82178V15.9663H0.666504Z" fill="black"/>
<path d="M14.0962 15.9663V0.497559H20.2837V3.48584H17.2427V6.50049H20.1606V9.40967H17.2427V12.9517H20.4858V15.9663H14.0962Z" fill="black"/>
<path d="M25.188 16.1069C23.7759 16.1069 22.7563 15.7554 22.1294 15.0522C21.5083 14.3491 21.1978 13.23 21.1978 11.6948V10.1831H24.2563V12.1167C24.2563 12.4741 24.3091 12.7554 24.4146 12.9604C24.5259 13.1597 24.7163 13.2593 24.9858 13.2593C25.2671 13.2593 25.4604 13.1772 25.5659 13.0132C25.6772 12.8491 25.7329 12.5796 25.7329 12.2046C25.7329 11.73 25.686 11.3345 25.5923 11.0181C25.4985 10.6958 25.3345 10.3911 25.1001 10.104C24.8716 9.81104 24.5522 9.47119 24.1421 9.08447L22.7534 7.76611C21.7163 6.7876 21.1978 5.66846 21.1978 4.40869C21.1978 3.09033 21.5024 2.08545 22.1118 1.39404C22.7271 0.702637 23.6147 0.356934 24.7749 0.356934C26.1929 0.356934 27.1978 0.734863 27.7896 1.49072C28.3872 2.24658 28.686 3.39502 28.686 4.93604H25.5396V3.87256C25.5396 3.66162 25.478 3.49756 25.355 3.38037C25.2378 3.26318 25.0767 3.20459 24.8716 3.20459C24.6255 3.20459 24.4438 3.2749 24.3267 3.41553C24.2153 3.55029 24.1597 3.72607 24.1597 3.94287C24.1597 4.15967 24.2183 4.39404 24.3354 4.646C24.4526 4.89795 24.6841 5.18799 25.0298 5.51611L26.814 7.22998C27.1714 7.56982 27.4995 7.93018 27.7983 8.31104C28.0972 8.68604 28.3374 9.12549 28.519 9.62939C28.7007 10.1274 28.7915 10.7368 28.7915 11.4575C28.7915 12.9106 28.522 14.0503 27.9829 14.8765C27.4497 15.6968 26.5181 16.1069 25.188 16.1069Z" fill="black"/>
<path d="M29.4067 15.9663L30.9009 0.497559H36.1479L37.6157 15.9663H34.689L34.4692 13.4702H32.606L32.4126 15.9663H29.4067ZM32.8257 11.0005H34.2319L33.5552 3.13428H33.4146L32.8257 11.0005Z" fill="black"/>
<path d="M46.5454 16.1069C45.2388 16.1069 44.228 15.7407 43.5132 15.0083C42.8042 14.2759 42.4497 13.2212 42.4497 11.8442V4.86572C42.4497 3.4126 42.7866 2.29932 43.4604 1.52588C44.1401 0.746582 45.1685 0.356934 46.5454 0.356934C47.9282 0.356934 48.9565 0.746582 49.6304 1.52588C50.3042 2.29932 50.6411 3.4126 50.6411 4.86572V11.8442C50.6411 13.2212 50.2866 14.2759 49.5776 15.0083C48.8687 15.7407 47.8579 16.1069 46.5454 16.1069ZM46.5454 13.2593C46.7856 13.2593 46.9731 13.1509 47.1079 12.9341C47.2427 12.7173 47.3101 12.4741 47.3101 12.2046V4.56689C47.3101 4.20361 47.269 3.88721 47.187 3.61768C47.1108 3.34229 46.897 3.20459 46.5454 3.20459C46.1938 3.20459 45.9771 3.34229 45.895 3.61768C45.8188 3.88721 45.7808 4.20361 45.7808 4.56689V12.2046C45.7808 12.4741 45.8481 12.7173 45.9829 12.9341C46.1235 13.1509 46.311 13.2593 46.5454 13.2593Z" fill="black"/>
<path d="M55.4399 16.186C54.2505 16.186 53.2778 15.8931 52.522 15.3071C51.772 14.7153 51.397 13.8101 51.397 12.5913V10.2886H54.6138V11.6157C54.6138 11.8911 54.6284 12.1577 54.6577 12.4155C54.6929 12.6733 54.769 12.8843 54.8862 13.0483C55.0034 13.2124 55.188 13.2944 55.4399 13.2944C55.7739 13.2944 55.9937 13.1831 56.0991 12.9604C56.2046 12.7319 56.2573 12.4419 56.2573 12.0903V9.04932C56.2573 8.79736 56.2397 8.54834 56.2046 8.30225C56.1753 8.05615 56.105 7.85107 55.9937 7.68701C55.8823 7.52295 55.7036 7.44092 55.4575 7.44092C54.8716 7.44092 54.5786 7.86572 54.5786 8.71533H51.7397V0.48877H59.1138V3.38916H54.6753V5.56885C54.8276 5.38135 55.0327 5.21729 55.2905 5.07666C55.5542 4.93018 55.8618 4.85693 56.2134 4.85693C56.9165 4.85693 57.4878 4.9917 57.9272 5.26123C58.3726 5.53076 58.7124 5.90576 58.9468 6.38623C59.187 6.8667 59.3511 7.42334 59.439 8.05615C59.5327 8.68896 59.5796 9.36865 59.5796 10.0952C59.5796 11.0269 59.5298 11.8677 59.4302 12.6177C59.3364 13.3618 59.146 14.0005 58.8589 14.5337C58.5776 15.0669 58.1616 15.4771 57.6108 15.7642C57.0659 16.0454 56.3423 16.186 55.4399 16.186Z" fill="black"/>
</svg>
