<svg width="57" height="17" viewBox="0 0 57 17" fill="none" xmlns="http://www.w3.org/2000/svg">
<path d="M0.333496 15.9663V0.497559H5.04443L6.34521 9.92822L7.63721 0.497559H12.3921V15.9663H9.56201V4.82178L7.78662 15.9663H5.00928L3.12842 4.82178V15.9663H0.333496Z" fill="black"/>
<path d="M13.7632 15.9663V0.497559H19.9507V3.48584H16.9097V6.50049H19.8276V9.40967H16.9097V12.9517H20.1528V15.9663H13.7632Z" fill="black"/>
<path d="M24.855 16.1069C23.4429 16.1069 22.4233 15.7554 21.7964 15.0522C21.1753 14.3491 20.8647 13.23 20.8647 11.6948V10.1831H23.9233V12.1167C23.9233 12.4741 23.9761 12.7554 24.0815 12.9604C24.1929 13.1597 24.3833 13.2593 24.6528 13.2593C24.9341 13.2593 25.1274 13.1772 25.2329 13.0132C25.3442 12.8491 25.3999 12.5796 25.3999 12.2046C25.3999 11.73 25.353 11.3345 25.2593 11.0181C25.1655 10.6958 25.0015 10.3911 24.7671 10.104C24.5386 9.81104 24.2192 9.47119 23.8091 9.08447L22.4204 7.76611C21.3833 6.7876 20.8647 5.66846 20.8647 4.40869C20.8647 3.09033 21.1694 2.08545 21.7788 1.39404C22.394 0.702637 23.2817 0.356934 24.4419 0.356934C25.8599 0.356934 26.8647 0.734863 27.4565 1.49072C28.0542 2.24658 28.353 3.39502 28.353 4.93604H25.2065V3.87256C25.2065 3.66162 25.145 3.49756 25.022 3.38037C24.9048 3.26318 24.7437 3.20459 24.5386 3.20459C24.2925 3.20459 24.1108 3.2749 23.9937 3.41553C23.8823 3.55029 23.8267 3.72607 23.8267 3.94287C23.8267 4.15967 23.8853 4.39404 24.0024 4.646C24.1196 4.89795 24.3511 5.18799 24.6968 5.51611L26.481 7.22998C26.8384 7.56982 27.1665 7.93018 27.4653 8.31104C27.7642 8.68604 28.0044 9.12549 28.186 9.62939C28.3677 10.1274 28.4585 10.7368 28.4585 11.4575C28.4585 12.9106 28.189 14.0503 27.6499 14.8765C27.1167 15.6968 26.1851 16.1069 24.855 16.1069Z" fill="black"/>
<path d="M29.0737 15.9663L30.5679 0.497559H35.8149L37.2827 15.9663H34.356L34.1362 13.4702H32.2729L32.0796 15.9663H29.0737ZM32.4927 11.0005H33.8989L33.2222 3.13428H33.0815L32.4927 11.0005Z" fill="black"/>
<path d="M43.9009 15.9663V4.04834C43.6899 4.30029 43.3999 4.50537 43.0308 4.66357C42.6616 4.81592 42.313 4.89209 41.9849 4.89209V2.42236C42.2954 2.37549 42.6294 2.27588 42.9868 2.12354C43.3442 1.96533 43.6753 1.75146 43.98 1.48193C44.2905 1.20654 44.5278 0.875488 44.6919 0.48877H47.1792V15.9663H43.9009Z" fill="black"/>
<path d="M52.1714 16.186C50.9819 16.186 50.0093 15.8931 49.2534 15.3071C48.5034 14.7153 48.1284 13.8101 48.1284 12.5913V10.2886H51.3452V11.6157C51.3452 11.8911 51.3599 12.1577 51.3892 12.4155C51.4243 12.6733 51.5005 12.8843 51.6177 13.0483C51.7349 13.2124 51.9194 13.2944 52.1714 13.2944C52.5054 13.2944 52.7251 13.1831 52.8306 12.9604C52.936 12.7319 52.9888 12.4419 52.9888 12.0903V9.04932C52.9888 8.79736 52.9712 8.54834 52.936 8.30225C52.9067 8.05615 52.8364 7.85107 52.7251 7.68701C52.6138 7.52295 52.4351 7.44092 52.189 7.44092C51.603 7.44092 51.3101 7.86572 51.3101 8.71533H48.4712V0.48877H55.8452V3.38916H51.4067V5.56885C51.5591 5.38135 51.7642 5.21729 52.022 5.07666C52.2856 4.93018 52.5933 4.85693 52.9448 4.85693C53.6479 4.85693 54.2192 4.9917 54.6587 5.26123C55.104 5.53076 55.4438 5.90576 55.6782 6.38623C55.9185 6.8667 56.0825 7.42334 56.1704 8.05615C56.2642 8.68896 56.311 9.36865 56.311 10.0952C56.311 11.0269 56.2612 11.8677 56.1616 12.6177C56.0679 13.3618 55.8774 14.0005 55.5903 14.5337C55.3091 15.0669 54.8931 15.4771 54.3423 15.7642C53.7974 16.0454 53.0737 16.186 52.1714 16.186Z" fill="black"/>
</svg>
