<svg width="12" height="12" viewBox="0 0 12 12" fill="none" xmlns="http://www.w3.org/2000/svg">
<path d="M9.84425 1.92645C9.3402 1.4194 8.74074 1.01703 8.0804 0.742549C7.42005 0.468065 6.71189 0.326887 5.9967 0.327149C2.98677 0.327149 0.555664 2.76354 0.555664 5.77159C0.555664 8.77965 2.98677 11.216 5.9967 11.216C8.53676 11.216 10.6546 9.48062 11.2607 7.1327H9.84425C9.56373 7.92863 9.04297 8.61793 8.35381 9.10552C7.66466 9.59312 6.84108 9.85496 5.9967 9.85493C3.74266 9.85493 1.91082 8.02423 1.91082 5.77159C1.91082 3.51895 3.74266 1.68826 5.9967 1.68826C7.12713 1.68826 8.13498 2.15784 8.87044 2.89965L6.67769 5.09104H11.4446V0.327149L9.84425 1.92645Z" fill="white"/>
</svg>
