<svg width="62" height="11" viewBox="0 0 62 11" fill="none" xmlns="http://www.w3.org/2000/svg">
<path d="M1.90381 6.93652H1.99658C2.38721 6.93652 2.72249 6.88932 3.00244 6.79492C3.28564 6.69727 3.51839 6.55729 3.70068 6.375C3.88298 6.19271 4.01807 5.96973 4.10596 5.70605C4.19385 5.43913 4.23779 5.13639 4.23779 4.79785V3.4502C4.23779 3.19303 4.21175 2.9668 4.15967 2.77148C4.11084 2.57617 4.03923 2.41504 3.94482 2.28809C3.85368 2.15788 3.74626 2.06022 3.62256 1.99512C3.50212 1.93001 3.36865 1.89746 3.22217 1.89746C3.06592 1.89746 2.92757 1.93652 2.80713 2.01465C2.68669 2.08952 2.58415 2.19206 2.49951 2.32227C2.41813 2.45247 2.35465 2.60221 2.30908 2.77148C2.26676 2.9375 2.24561 3.11165 2.24561 3.29395C2.24561 3.47624 2.26676 3.65039 2.30908 3.81641C2.3514 3.97917 2.41488 4.12402 2.49951 4.25098C2.58415 4.37467 2.68994 4.47396 2.81689 4.54883C2.94385 4.62044 3.09359 4.65625 3.26611 4.65625C3.43213 4.65625 3.58024 4.62533 3.71045 4.56348C3.84391 4.49837 3.95622 4.41374 4.04736 4.30957C4.14176 4.2054 4.21338 4.08984 4.26221 3.96289C4.31429 3.83594 4.34033 3.70736 4.34033 3.57715L4.8042 3.83105C4.8042 4.05892 4.75537 4.28353 4.65771 4.50488C4.56006 4.72624 4.42334 4.92806 4.24756 5.11035C4.07503 5.28939 3.87484 5.43262 3.64697 5.54004C3.41911 5.64746 3.17497 5.70117 2.91455 5.70117C2.58252 5.70117 2.28792 5.64095 2.03076 5.52051C1.7736 5.39681 1.5555 5.22754 1.37646 5.0127C1.20068 4.7946 1.06722 4.54069 0.976074 4.25098C0.884928 3.96126 0.839355 3.64714 0.839355 3.30859C0.839355 2.96354 0.894694 2.63965 1.00537 2.33691C1.1193 2.03418 1.28044 1.76725 1.48877 1.53613C1.70036 1.30501 1.95264 1.12435 2.24561 0.994141C2.54183 0.860677 2.87061 0.793945 3.23193 0.793945C3.59326 0.793945 3.92204 0.863932 4.21826 1.00391C4.51449 1.14388 4.76839 1.34245 4.97998 1.59961C5.19157 1.85352 5.35433 2.15788 5.46826 2.5127C5.58545 2.86751 5.64404 3.26139 5.64404 3.69434V4.18262C5.64404 4.64486 5.59359 5.07454 5.49268 5.47168C5.39502 5.86882 5.24691 6.22852 5.04834 6.55078C4.85303 6.86979 4.60889 7.14323 4.31592 7.37109C4.0262 7.59896 3.68929 7.77311 3.30518 7.89355C2.92106 8.014 2.49137 8.07422 2.01611 8.07422H1.90381V6.93652Z" fill="white"/>
<path d="M11.7271 8.00586H10.1792L10.189 6.86328H11.7271C12.1112 6.86328 12.4351 6.77702 12.6987 6.60449C12.9624 6.42871 13.161 6.17318 13.2944 5.83789C13.4312 5.5026 13.4995 5.09733 13.4995 4.62207V4.27539C13.4995 3.91081 13.4604 3.59017 13.3823 3.31348C13.3075 3.03678 13.1951 2.80404 13.0454 2.61523C12.8957 2.42643 12.7118 2.28483 12.4937 2.19043C12.2756 2.09277 12.0249 2.04395 11.7417 2.04395H10.1499V0.896484H11.7417C12.217 0.896484 12.6515 0.977865 13.0454 1.14062C13.4425 1.30013 13.786 1.52962 14.0757 1.8291C14.3654 2.12858 14.5884 2.48665 14.7446 2.90332C14.9041 3.31673 14.9839 3.77734 14.9839 4.28516V4.62207C14.9839 5.12663 14.9041 5.58724 14.7446 6.00391C14.5884 6.42057 14.3654 6.77865 14.0757 7.07812C13.7892 7.37435 13.4458 7.60384 13.0454 7.7666C12.6483 7.92611 12.2088 8.00586 11.7271 8.00586ZM11.0093 0.896484V8.00586H9.54443V0.896484H11.0093Z" fill="white"/>
<path d="M17.4448 2.72266V8.00586H16.0337V2.72266H17.4448ZM15.9458 1.3457C15.9458 1.14062 16.0174 0.971354 16.1606 0.837891C16.3039 0.704427 16.4959 0.637695 16.7368 0.637695C16.9744 0.637695 17.1649 0.704427 17.3081 0.837891C17.4546 0.971354 17.5278 1.14062 17.5278 1.3457C17.5278 1.55078 17.4546 1.72005 17.3081 1.85352C17.1649 1.98698 16.9744 2.05371 16.7368 2.05371C16.4959 2.05371 16.3039 1.98698 16.1606 1.85352C16.0174 1.72005 15.9458 1.55078 15.9458 1.3457Z" fill="white"/>
<path d="M21.4634 6.5459C21.4634 6.44499 21.4341 6.35384 21.3755 6.27246C21.3169 6.19108 21.2078 6.11621 21.0483 6.04785C20.8921 5.97624 20.6659 5.91113 20.3696 5.85254C20.1027 5.79395 19.8537 5.7207 19.6226 5.63281C19.3947 5.54167 19.1961 5.43262 19.0269 5.30566C18.8608 5.17871 18.7306 5.02897 18.6362 4.85645C18.5418 4.68066 18.4946 4.48047 18.4946 4.25586C18.4946 4.03451 18.5418 3.82617 18.6362 3.63086C18.7339 3.43555 18.8722 3.26302 19.0513 3.11328C19.2336 2.96029 19.4549 2.84147 19.7153 2.75684C19.979 2.66895 20.2752 2.625 20.604 2.625C21.063 2.625 21.4569 2.69824 21.7856 2.84473C22.1177 2.99121 22.3716 3.19303 22.5474 3.4502C22.7264 3.7041 22.8159 3.99382 22.8159 4.31934H21.4097C21.4097 4.18262 21.3804 4.06055 21.3218 3.95312C21.2664 3.84245 21.1785 3.75618 21.0581 3.69434C20.9409 3.62923 20.7879 3.59668 20.5991 3.59668C20.4429 3.59668 20.3078 3.62435 20.1938 3.67969C20.0799 3.73177 19.992 3.80339 19.9302 3.89453C19.8716 3.98242 19.8423 4.08008 19.8423 4.1875C19.8423 4.26888 19.8586 4.34212 19.8911 4.40723C19.9269 4.46908 19.9839 4.52604 20.062 4.57812C20.1401 4.63021 20.241 4.67904 20.3647 4.72461C20.4917 4.76693 20.6479 4.80599 20.8335 4.8418C21.2144 4.91992 21.5545 5.02246 21.854 5.14941C22.1535 5.27311 22.3911 5.44238 22.5669 5.65723C22.7427 5.86882 22.8306 6.14714 22.8306 6.49219C22.8306 6.72656 22.7785 6.94141 22.6743 7.13672C22.5701 7.33203 22.4204 7.50293 22.2251 7.64941C22.0298 7.79264 21.7954 7.90495 21.522 7.98633C21.2518 8.06445 20.9474 8.10352 20.6089 8.10352C20.1174 8.10352 19.7007 8.01562 19.3589 7.83984C19.0203 7.66406 18.7632 7.44108 18.5874 7.1709C18.4149 6.89746 18.3286 6.61751 18.3286 6.33105H19.6616C19.6681 6.52311 19.717 6.67773 19.8081 6.79492C19.9025 6.91211 20.0213 6.99674 20.1646 7.04883C20.311 7.10091 20.4689 7.12695 20.6382 7.12695C20.8205 7.12695 20.9718 7.10254 21.0923 7.05371C21.2127 7.00163 21.3039 6.93327 21.3657 6.84863C21.4308 6.76074 21.4634 6.65983 21.4634 6.5459Z" fill="white"/>
<path d="M25.1499 3.73828V10.0371H23.7437V2.72266H25.0474L25.1499 3.73828ZM28.4946 5.30566V5.4082C28.4946 5.79232 28.4491 6.14876 28.3579 6.47754C28.27 6.80632 28.1398 7.09277 27.9673 7.33691C27.7948 7.5778 27.5799 7.7666 27.3228 7.90332C27.0688 8.03678 26.7759 8.10352 26.4438 8.10352C26.1216 8.10352 25.8416 8.03841 25.604 7.9082C25.3664 7.77799 25.1662 7.5957 25.0034 7.36133C24.8439 7.1237 24.7153 6.84863 24.6177 6.53613C24.52 6.22363 24.4451 5.88835 24.3931 5.53027V5.26172C24.4451 4.8776 24.52 4.52604 24.6177 4.20703C24.7153 3.88477 24.8439 3.60645 25.0034 3.37207C25.1662 3.13444 25.3647 2.95052 25.5991 2.82031C25.8368 2.6901 26.1151 2.625 26.4341 2.625C26.7694 2.625 27.064 2.68848 27.3179 2.81543C27.575 2.94238 27.7899 3.12467 27.9624 3.3623C28.1382 3.59993 28.27 3.88314 28.3579 4.21191C28.4491 4.54069 28.4946 4.90527 28.4946 5.30566ZM27.0835 5.4082V5.30566C27.0835 5.08105 27.064 4.87435 27.0249 4.68555C26.9891 4.49349 26.9305 4.32585 26.8491 4.18262C26.771 4.03939 26.6668 3.92871 26.5366 3.85059C26.4097 3.76921 26.255 3.72852 26.0728 3.72852C25.8807 3.72852 25.7163 3.75944 25.5796 3.82129C25.4461 3.88314 25.3371 3.97266 25.2524 4.08984C25.1678 4.20703 25.1043 4.34701 25.062 4.50977C25.0197 4.67253 24.9937 4.85645 24.9839 5.06152V5.74023C25.0002 5.98112 25.0457 6.19759 25.1206 6.38965C25.1955 6.57845 25.311 6.72819 25.4673 6.83887C25.6235 6.94954 25.8286 7.00488 26.0825 7.00488C26.2681 7.00488 26.4243 6.96419 26.5513 6.88281C26.6782 6.79818 26.7808 6.68262 26.8589 6.53613C26.9403 6.38965 26.9972 6.22038 27.0298 6.02832C27.0656 5.83626 27.0835 5.62956 27.0835 5.4082Z" fill="white"/>
<path d="M29.144 5.41797V5.31543C29.144 4.92806 29.1994 4.57161 29.3101 4.24609C29.4207 3.91732 29.5819 3.63249 29.7935 3.3916C30.005 3.15072 30.2655 2.96354 30.5747 2.83008C30.884 2.69336 31.2388 2.625 31.6392 2.625C32.0396 2.625 32.396 2.69336 32.7085 2.83008C33.021 2.96354 33.283 3.15072 33.4946 3.3916C33.7095 3.63249 33.8722 3.91732 33.9829 4.24609C34.0936 4.57161 34.1489 4.92806 34.1489 5.31543V5.41797C34.1489 5.80208 34.0936 6.15853 33.9829 6.4873C33.8722 6.81283 33.7095 7.09766 33.4946 7.3418C33.283 7.58268 33.0226 7.76986 32.7134 7.90332C32.4041 8.03678 32.0493 8.10352 31.6489 8.10352C31.2485 8.10352 30.8921 8.03678 30.5796 7.90332C30.2703 7.76986 30.0083 7.58268 29.7935 7.3418C29.5819 7.09766 29.4207 6.81283 29.3101 6.4873C29.1994 6.15853 29.144 5.80208 29.144 5.41797ZM30.5503 5.31543V5.41797C30.5503 5.63932 30.5698 5.84603 30.6089 6.03809C30.6479 6.23014 30.7098 6.39941 30.7944 6.5459C30.8823 6.68913 30.9963 6.80143 31.1362 6.88281C31.2762 6.96419 31.4471 7.00488 31.6489 7.00488C31.8442 7.00488 32.0119 6.96419 32.1519 6.88281C32.2918 6.80143 32.4041 6.68913 32.4888 6.5459C32.5734 6.39941 32.6353 6.23014 32.6743 6.03809C32.7166 5.84603 32.7378 5.63932 32.7378 5.41797V5.31543C32.7378 5.10059 32.7166 4.89876 32.6743 4.70996C32.6353 4.5179 32.5718 4.34863 32.4839 4.20215C32.3993 4.05241 32.2869 3.93522 32.147 3.85059C32.007 3.76595 31.8377 3.72363 31.6392 3.72363C31.4406 3.72363 31.2713 3.76595 31.1313 3.85059C30.9946 3.93522 30.8823 4.05241 30.7944 4.20215C30.7098 4.34863 30.6479 4.5179 30.6089 4.70996C30.5698 4.89876 30.5503 5.10059 30.5503 5.31543Z" fill="white"/>
<path d="M36.3901 3.85059V8.00586H34.9839V2.72266H36.3022L36.3901 3.85059ZM36.1851 5.17871H35.8042C35.8042 4.78809 35.8547 4.43652 35.9556 4.12402C36.0565 3.80827 36.1981 3.53971 36.3804 3.31836C36.5627 3.09375 36.7791 2.92285 37.0298 2.80566C37.2837 2.68522 37.5669 2.625 37.8794 2.625C38.1268 2.625 38.353 2.66081 38.5581 2.73242C38.7632 2.80404 38.939 2.91797 39.0854 3.07422C39.2352 3.23047 39.3491 3.43717 39.4272 3.69434C39.5086 3.9515 39.5493 4.26562 39.5493 4.63672V8.00586H38.1333V4.63184C38.1333 4.39746 38.1007 4.21517 38.0356 4.08496C37.9705 3.95475 37.8745 3.86361 37.7476 3.81152C37.6239 3.75618 37.4709 3.72852 37.2886 3.72852C37.0998 3.72852 36.9354 3.76595 36.7954 3.84082C36.6587 3.91569 36.5448 4.01986 36.4536 4.15332C36.3657 4.28353 36.299 4.43652 36.2534 4.6123C36.2078 4.78809 36.1851 4.97689 36.1851 5.17871Z" fill="white"/>
<path d="M42.103 2.72266V8.00586H40.6919V2.72266H42.103ZM40.604 1.3457C40.604 1.14062 40.6756 0.971354 40.8188 0.837891C40.9621 0.704427 41.1541 0.637695 41.395 0.637695C41.6326 0.637695 41.8231 0.704427 41.9663 0.837891C42.1128 0.971354 42.186 1.14062 42.186 1.3457C42.186 1.55078 42.1128 1.72005 41.9663 1.85352C41.8231 1.98698 41.6326 2.05371 41.395 2.05371C41.1541 2.05371 40.9621 1.98698 40.8188 1.85352C40.6756 1.72005 40.604 1.55078 40.604 1.3457Z" fill="white"/>
<path d="M43.2651 0.505859H44.6714V6.79492L44.5298 8.00586H43.2651V0.505859ZM48.0161 5.31055V5.41309C48.0161 5.80697 47.9738 6.16829 47.8892 6.49707C47.8078 6.82585 47.6808 7.11068 47.5083 7.35156C47.3358 7.58919 47.1209 7.77474 46.8638 7.9082C46.6099 8.03841 46.3104 8.10352 45.9653 8.10352C45.6431 8.10352 45.3631 8.03841 45.1255 7.9082C44.8911 7.77799 44.6942 7.59408 44.5347 7.35645C44.3752 7.11882 44.2466 6.84049 44.1489 6.52148C44.0513 6.20247 43.978 5.85417 43.9292 5.47656V5.25195C43.978 4.87435 44.0513 4.52604 44.1489 4.20703C44.2466 3.88802 44.3752 3.6097 44.5347 3.37207C44.6942 3.13444 44.8911 2.95052 45.1255 2.82031C45.3599 2.6901 45.6366 2.625 45.9556 2.625C46.3039 2.625 46.6066 2.69173 46.8638 2.8252C47.1242 2.9554 47.339 3.14095 47.5083 3.38184C47.6808 3.61947 47.8078 3.90267 47.8892 4.23145C47.9738 4.55697 48.0161 4.91667 48.0161 5.31055ZM46.6099 5.41309V5.31055C46.6099 5.0957 46.5936 4.89388 46.561 4.70508C46.5317 4.51302 46.4797 4.34538 46.4048 4.20215C46.3299 4.05566 46.2274 3.9401 46.0972 3.85547C45.9702 3.77083 45.8058 3.72852 45.604 3.72852C45.4119 3.72852 45.2492 3.76107 45.1157 3.82617C44.9823 3.89128 44.8716 3.98242 44.7837 4.09961C44.6991 4.2168 44.6356 4.35677 44.5933 4.51953C44.5509 4.67904 44.5249 4.85482 44.5151 5.04688V5.68652C44.5249 5.94368 44.5672 6.17155 44.6421 6.37012C44.7202 6.56543 44.8374 6.72005 44.9937 6.83398C45.1532 6.94466 45.3599 7 45.6138 7C45.8123 7 45.9767 6.96094 46.1069 6.88281C46.2371 6.80469 46.3381 6.69401 46.4097 6.55078C46.4845 6.40755 46.5366 6.23991 46.5659 6.04785C46.5952 5.85254 46.6099 5.64095 46.6099 5.41309Z" fill="white"/>
<path d="M50.3745 0.505859V8.00586H48.9634V0.505859H50.3745Z" fill="white"/>
<path d="M53.9683 8.10352C53.5581 8.10352 53.1903 8.03841 52.8647 7.9082C52.5392 7.77474 52.2625 7.59082 52.0347 7.35645C51.8101 7.12207 51.6375 6.85026 51.5171 6.54102C51.3966 6.22852 51.3364 5.89648 51.3364 5.54492V5.34961C51.3364 4.94922 51.3934 4.58301 51.5073 4.25098C51.6213 3.91895 51.784 3.63086 51.9956 3.38672C52.2104 3.14258 52.4709 2.9554 52.7769 2.8252C53.0828 2.69173 53.4279 2.625 53.812 2.625C54.1864 2.625 54.5184 2.68685 54.8081 2.81055C55.0978 2.93424 55.3403 3.11003 55.5356 3.33789C55.7342 3.56576 55.884 3.83919 55.9849 4.1582C56.0858 4.47396 56.1362 4.82552 56.1362 5.21289V5.79883H51.937V4.86133H54.7544V4.75391C54.7544 4.55859 54.7186 4.38444 54.647 4.23145C54.5786 4.0752 54.4744 3.9515 54.3345 3.86035C54.1945 3.76921 54.0155 3.72363 53.7974 3.72363C53.6118 3.72363 53.4523 3.76432 53.3188 3.8457C53.1854 3.92708 53.0763 4.04102 52.9917 4.1875C52.9103 4.33398 52.8485 4.50651 52.8062 4.70508C52.7671 4.90039 52.7476 5.11523 52.7476 5.34961V5.54492C52.7476 5.75651 52.7769 5.95182 52.8354 6.13086C52.8973 6.3099 52.9836 6.46452 53.0942 6.59473C53.2082 6.72493 53.3449 6.82585 53.5044 6.89746C53.6672 6.96908 53.8511 7.00488 54.0562 7.00488C54.3101 7.00488 54.5461 6.95605 54.7642 6.8584C54.9855 6.75749 55.1759 6.60612 55.3354 6.4043L56.019 7.14648C55.9084 7.30599 55.757 7.45898 55.5649 7.60547C55.3761 7.75195 55.1483 7.8724 54.8813 7.9668C54.6144 8.05794 54.3101 8.10352 53.9683 8.10352Z" fill="white"/>
<path d="M59.7935 6.5459C59.7935 6.44499 59.7642 6.35384 59.7056 6.27246C59.647 6.19108 59.5379 6.11621 59.3784 6.04785C59.2222 5.97624 58.9959 5.91113 58.6997 5.85254C58.4328 5.79395 58.1838 5.7207 57.9526 5.63281C57.7248 5.54167 57.5262 5.43262 57.3569 5.30566C57.1909 5.17871 57.0607 5.02897 56.9663 4.85645C56.8719 4.68066 56.8247 4.48047 56.8247 4.25586C56.8247 4.03451 56.8719 3.82617 56.9663 3.63086C57.064 3.43555 57.2023 3.26302 57.3813 3.11328C57.5636 2.96029 57.785 2.84147 58.0454 2.75684C58.3091 2.66895 58.6053 2.625 58.9341 2.625C59.3931 2.625 59.7869 2.69824 60.1157 2.84473C60.4478 2.99121 60.7017 3.19303 60.8774 3.4502C61.0565 3.7041 61.146 3.99382 61.146 4.31934H59.7397C59.7397 4.18262 59.7104 4.06055 59.6519 3.95312C59.5965 3.84245 59.5086 3.75618 59.3882 3.69434C59.271 3.62923 59.118 3.59668 58.9292 3.59668C58.7729 3.59668 58.6379 3.62435 58.5239 3.67969C58.41 3.73177 58.3221 3.80339 58.2603 3.89453C58.2017 3.98242 58.1724 4.08008 58.1724 4.1875C58.1724 4.26888 58.1886 4.34212 58.2212 4.40723C58.257 4.46908 58.314 4.52604 58.3921 4.57812C58.4702 4.63021 58.5711 4.67904 58.6948 4.72461C58.8218 4.76693 58.978 4.80599 59.1636 4.8418C59.5444 4.91992 59.8846 5.02246 60.1841 5.14941C60.4836 5.27311 60.7212 5.44238 60.897 5.65723C61.0728 5.86882 61.1606 6.14714 61.1606 6.49219C61.1606 6.72656 61.1086 6.94141 61.0044 7.13672C60.9002 7.33203 60.7505 7.50293 60.5552 7.64941C60.3599 7.79264 60.1255 7.90495 59.8521 7.98633C59.5819 8.06445 59.2775 8.10352 58.939 8.10352C58.4474 8.10352 58.0308 8.01562 57.689 7.83984C57.3504 7.66406 57.0933 7.44108 56.9175 7.1709C56.745 6.89746 56.6587 6.61751 56.6587 6.33105H57.9917C57.9982 6.52311 58.047 6.67773 58.1382 6.79492C58.2326 6.91211 58.3514 6.99674 58.4946 7.04883C58.6411 7.10091 58.799 7.12695 58.9683 7.12695C59.1506 7.12695 59.3019 7.10254 59.4224 7.05371C59.5428 7.00163 59.634 6.93327 59.6958 6.84863C59.7609 6.76074 59.7935 6.65983 59.7935 6.5459Z" fill="white"/>
</svg>
