<svg width="52" height="10" viewBox="0 0 52 10" fill="none" xmlns="http://www.w3.org/2000/svg">
<path d="M3.24658 0.693848V7.81787H1.84033V2.31494L0.150879 2.85205V1.74365L3.09521 0.693848H3.24658Z" fill="white"/>
<path d="M13.2261 6.67529V7.81787H9.44189V6.67529H13.2261ZM9.92041 0.708496V7.81787H8.45557V0.708496H9.92041ZM12.7329 3.604V4.71729H9.44189V3.604H12.7329ZM13.2212 0.708496V1.85596H9.44189V0.708496H13.2212Z" fill="white"/>
<path d="M15.3696 3.6626V7.81787H13.9634V2.53467H15.2817L15.3696 3.6626ZM15.1646 4.99072H14.7837C14.7837 4.6001 14.8341 4.24854 14.9351 3.93604C15.036 3.62028 15.1776 3.35173 15.3599 3.13037C15.5422 2.90576 15.7586 2.73486 16.0093 2.61768C16.2632 2.49723 16.5464 2.43701 16.8589 2.43701C17.1063 2.43701 17.3325 2.47282 17.5376 2.54443C17.7427 2.61605 17.9185 2.72998 18.0649 2.88623C18.2147 3.04248 18.3286 3.24919 18.4067 3.50635C18.4881 3.76351 18.5288 4.07764 18.5288 4.44873V7.81787H17.1128V4.44385C17.1128 4.20947 17.0802 4.02718 17.0151 3.89697C16.95 3.76676 16.854 3.67562 16.7271 3.62354C16.6034 3.5682 16.4504 3.54053 16.2681 3.54053C16.0793 3.54053 15.9149 3.57796 15.7749 3.65283C15.6382 3.7277 15.5243 3.83187 15.4331 3.96533C15.3452 4.09554 15.2785 4.24854 15.2329 4.42432C15.1873 4.6001 15.1646 4.7889 15.1646 4.99072Z" fill="white"/>
<path d="M26.9468 6.67529V7.81787H23.1626V6.67529H26.9468ZM23.6411 0.708496V7.81787H22.1763V0.708496H23.6411ZM26.4536 3.604V4.71729H23.1626V3.604H26.4536ZM26.9419 0.708496V1.85596H23.1626V0.708496H26.9419Z" fill="white"/>
<path d="M30.5698 6.35791C30.5698 6.257 30.5405 6.16585 30.4819 6.08447C30.4233 6.00309 30.3143 5.92822 30.1548 5.85986C29.9985 5.78825 29.7723 5.72314 29.4761 5.66455C29.2091 5.60596 28.9601 5.53271 28.729 5.44482C28.5011 5.35368 28.3026 5.24463 28.1333 5.11768C27.9673 4.99072 27.8371 4.84098 27.7427 4.66846C27.6483 4.49268 27.6011 4.29248 27.6011 4.06787C27.6011 3.84652 27.6483 3.63818 27.7427 3.44287C27.8403 3.24756 27.9787 3.07503 28.1577 2.92529C28.34 2.7723 28.5614 2.65348 28.8218 2.56885C29.0854 2.48096 29.3817 2.43701 29.7104 2.43701C30.1694 2.43701 30.5633 2.51025 30.8921 2.65674C31.2241 2.80322 31.478 3.00505 31.6538 3.26221C31.8328 3.51611 31.9224 3.80583 31.9224 4.13135H30.5161C30.5161 3.99463 30.4868 3.87256 30.4282 3.76514C30.3729 3.65446 30.285 3.5682 30.1646 3.50635C30.0474 3.44124 29.8944 3.40869 29.7056 3.40869C29.5493 3.40869 29.4142 3.43636 29.3003 3.4917C29.1864 3.54378 29.0985 3.6154 29.0366 3.70654C28.978 3.79443 28.9487 3.89209 28.9487 3.99951C28.9487 4.08089 28.965 4.15413 28.9976 4.21924C29.0334 4.28109 29.0903 4.33805 29.1685 4.39014C29.2466 4.44222 29.3475 4.49105 29.4712 4.53662C29.5981 4.57894 29.7544 4.618 29.9399 4.65381C30.3208 4.73193 30.661 4.83447 30.9604 4.96143C31.2599 5.08512 31.4976 5.25439 31.6733 5.46924C31.8491 5.68083 31.937 5.95915 31.937 6.3042C31.937 6.53857 31.8849 6.75342 31.7808 6.94873C31.6766 7.14404 31.5269 7.31494 31.3315 7.46143C31.1362 7.60465 30.9019 7.71696 30.6284 7.79834C30.3582 7.87646 30.0539 7.91553 29.7153 7.91553C29.2238 7.91553 28.8071 7.82764 28.4653 7.65186C28.1268 7.47607 27.8696 7.25309 27.6938 6.98291C27.5213 6.70947 27.4351 6.42952 27.4351 6.14307H28.7681C28.7746 6.33512 28.8234 6.48975 28.9146 6.60693C29.009 6.72412 29.1278 6.80876 29.271 6.86084C29.4175 6.91292 29.5754 6.93896 29.7446 6.93896C29.9269 6.93896 30.0783 6.91455 30.1987 6.86572C30.3192 6.81364 30.4103 6.74528 30.4722 6.66064C30.5373 6.57275 30.5698 6.47184 30.5698 6.35791Z" fill="white"/>
<path d="M34.2563 3.55029V9.84912H32.8501V2.53467H34.1538L34.2563 3.55029ZM37.6011 5.11768V5.22021C37.6011 5.60433 37.5555 5.96077 37.4644 6.28955C37.3765 6.61833 37.2463 6.90479 37.0737 7.14893C36.9012 7.38981 36.6864 7.57861 36.4292 7.71533C36.1753 7.8488 35.8823 7.91553 35.5503 7.91553C35.228 7.91553 34.9481 7.85042 34.7104 7.72021C34.4728 7.59001 34.2726 7.40771 34.1099 7.17334C33.9504 6.93571 33.8218 6.66064 33.7241 6.34814C33.6265 6.03564 33.5516 5.70036 33.4995 5.34229V5.07373C33.5516 4.68962 33.6265 4.33805 33.7241 4.01904C33.8218 3.69678 33.9504 3.41846 34.1099 3.18408C34.2726 2.94645 34.4712 2.76253 34.7056 2.63232C34.9432 2.50212 35.2215 2.43701 35.5405 2.43701C35.8758 2.43701 36.1704 2.50049 36.4243 2.62744C36.6815 2.75439 36.8963 2.93669 37.0688 3.17432C37.2446 3.41195 37.3765 3.69515 37.4644 4.02393C37.5555 4.3527 37.6011 4.71729 37.6011 5.11768ZM36.1899 5.22021V5.11768C36.1899 4.89307 36.1704 4.68636 36.1313 4.49756C36.0955 4.3055 36.0369 4.13786 35.9556 3.99463C35.8774 3.8514 35.7733 3.74072 35.6431 3.6626C35.5161 3.58122 35.3615 3.54053 35.1792 3.54053C34.9871 3.54053 34.8228 3.57145 34.686 3.6333C34.5526 3.69515 34.4435 3.78467 34.3589 3.90186C34.2743 4.01904 34.2108 4.15902 34.1685 4.32178C34.1261 4.48454 34.1001 4.66846 34.0903 4.87354V5.55225C34.1066 5.79313 34.1522 6.0096 34.2271 6.20166C34.3019 6.39046 34.4175 6.5402 34.5737 6.65088C34.73 6.76156 34.9351 6.81689 35.189 6.81689C35.3745 6.81689 35.5308 6.7762 35.6577 6.69482C35.7847 6.61019 35.8872 6.49463 35.9653 6.34814C36.0467 6.20166 36.1037 6.03239 36.1362 5.84033C36.172 5.64827 36.1899 5.44157 36.1899 5.22021Z" fill="white"/>
<path d="M40.9067 7.91553C40.4966 7.91553 40.1287 7.85042 39.8032 7.72021C39.4777 7.58675 39.201 7.40283 38.9731 7.16846C38.7485 6.93408 38.576 6.66227 38.4556 6.35303C38.3351 6.04053 38.2749 5.7085 38.2749 5.35693V5.16162C38.2749 4.76123 38.3319 4.39502 38.4458 4.06299C38.5597 3.73096 38.7225 3.44287 38.9341 3.19873C39.1489 2.95459 39.4093 2.76742 39.7153 2.63721C40.0213 2.50374 40.3664 2.43701 40.7505 2.43701C41.1248 2.43701 41.4569 2.49886 41.7466 2.62256C42.0363 2.74626 42.2788 2.92204 42.4741 3.1499C42.6727 3.37777 42.8224 3.6512 42.9233 3.97021C43.0243 4.28597 43.0747 4.63753 43.0747 5.0249V5.61084H38.8755V4.67334H41.6929V4.56592C41.6929 4.37061 41.6571 4.19645 41.5854 4.04346C41.5171 3.88721 41.4129 3.76351 41.2729 3.67236C41.133 3.58122 40.9539 3.53564 40.7358 3.53564C40.5503 3.53564 40.3908 3.57633 40.2573 3.65771C40.1239 3.7391 40.0148 3.85303 39.9302 3.99951C39.8488 4.146 39.7869 4.31852 39.7446 4.51709C39.7056 4.7124 39.686 4.92725 39.686 5.16162V5.35693C39.686 5.56852 39.7153 5.76383 39.7739 5.94287C39.8358 6.12191 39.922 6.27653 40.0327 6.40674C40.1466 6.53695 40.2834 6.63786 40.4429 6.70947C40.6056 6.78109 40.7896 6.81689 40.9946 6.81689C41.2485 6.81689 41.4845 6.76807 41.7026 6.67041C41.924 6.5695 42.1144 6.41813 42.2739 6.21631L42.9575 6.9585C42.8468 7.118 42.6955 7.271 42.5034 7.41748C42.3146 7.56396 42.0868 7.68441 41.8198 7.77881C41.5529 7.86995 41.2485 7.91553 40.9067 7.91553Z" fill="white"/>
<path d="M45.2817 3.68701V7.81787H43.8755V2.53467H45.1987L45.2817 3.68701ZM46.8735 2.50049L46.8491 3.8042C46.7808 3.79443 46.6978 3.7863 46.6001 3.77979C46.5057 3.77002 46.4194 3.76514 46.3413 3.76514C46.1427 3.76514 45.9702 3.79118 45.8237 3.84326C45.6805 3.89209 45.5601 3.96533 45.4624 4.06299C45.368 4.16064 45.2964 4.27946 45.2476 4.41943C45.202 4.55941 45.1759 4.71891 45.1694 4.89795L44.8862 4.81006C44.8862 4.46826 44.9204 4.15413 44.9888 3.86768C45.0571 3.57796 45.1564 3.32568 45.2866 3.11084C45.4201 2.896 45.5828 2.72998 45.7749 2.61279C45.967 2.49561 46.1867 2.43701 46.4341 2.43701C46.5122 2.43701 46.592 2.44352 46.6733 2.45654C46.7547 2.46631 46.8215 2.48096 46.8735 2.50049Z" fill="white"/>
<path d="M50.2231 6.62646V4.27295C50.2231 4.10368 50.1955 3.95882 50.1401 3.83838C50.0848 3.71468 49.9985 3.61865 49.8813 3.55029C49.7674 3.48193 49.6193 3.44775 49.437 3.44775C49.2808 3.44775 49.1457 3.47542 49.0317 3.53076C48.9178 3.58285 48.8299 3.65934 48.7681 3.76025C48.7062 3.85791 48.6753 3.97347 48.6753 4.10693H47.269C47.269 3.88232 47.3211 3.66911 47.4253 3.46729C47.5295 3.26546 47.6808 3.08805 47.8794 2.93506C48.078 2.77881 48.314 2.65674 48.5874 2.56885C48.8641 2.48096 49.1733 2.43701 49.5151 2.43701C49.9253 2.43701 50.2899 2.50537 50.6089 2.64209C50.9279 2.77881 51.1785 2.98389 51.3608 3.25732C51.5464 3.53076 51.6392 3.87256 51.6392 4.28271V6.54346C51.6392 6.83317 51.6571 7.0708 51.6929 7.25635C51.7287 7.43864 51.7808 7.59814 51.8491 7.73486V7.81787H50.4282C50.3599 7.67464 50.3078 7.49561 50.272 7.28076C50.2394 7.06266 50.2231 6.84456 50.2231 6.62646ZM50.4087 4.6001L50.4185 5.396H49.6323C49.4468 5.396 49.2856 5.41715 49.1489 5.45947C49.0122 5.50179 48.8999 5.56201 48.812 5.64014C48.7241 5.71501 48.659 5.8029 48.6167 5.90381C48.5776 6.00472 48.5581 6.1154 48.5581 6.23584C48.5581 6.35628 48.5858 6.46533 48.6411 6.56299C48.6965 6.65739 48.7762 6.73226 48.8804 6.7876C48.9845 6.83968 49.1066 6.86572 49.2466 6.86572C49.4582 6.86572 49.6421 6.8234 49.7983 6.73877C49.9546 6.65413 50.075 6.54997 50.1597 6.42627C50.2476 6.30257 50.2931 6.18538 50.2964 6.07471L50.6675 6.67041C50.6154 6.80387 50.5438 6.94222 50.4526 7.08545C50.3647 7.22868 50.2524 7.36377 50.1157 7.49072C49.979 7.61442 49.8146 7.71696 49.6226 7.79834C49.4305 7.87646 49.2026 7.91553 48.939 7.91553C48.6037 7.91553 48.2993 7.8488 48.0259 7.71533C47.7557 7.57861 47.5409 7.39144 47.3813 7.15381C47.2251 6.91292 47.147 6.63949 47.147 6.3335C47.147 6.0568 47.1991 5.81104 47.3032 5.59619C47.4074 5.38135 47.5604 5.20068 47.7622 5.0542C47.9673 4.90446 48.2228 4.79215 48.5288 4.71729C48.8348 4.63916 49.1896 4.6001 49.5933 4.6001H50.4087Z" fill="white"/>
</svg>
