<svg width="54" height="11" viewBox="0 0 54 11" fill="none" xmlns="http://www.w3.org/2000/svg">
<path d="M4.25635 0.823242H4.46143V1.94629H4.37842C4.00732 1.94629 3.67692 2.00163 3.38721 2.1123C3.09749 2.22298 2.85173 2.38086 2.6499 2.58594C2.45133 2.78776 2.29834 3.0319 2.19092 3.31836C2.08675 3.60482 2.03467 3.92546 2.03467 4.28027V5.46191C2.03467 5.71582 2.05908 5.94043 2.10791 6.13574C2.15999 6.3278 2.23324 6.48893 2.32764 6.61914C2.42529 6.74609 2.53923 6.84212 2.66943 6.90723C2.79964 6.96908 2.94613 7 3.10889 7C3.26188 7 3.40023 6.96745 3.52393 6.90234C3.65088 6.83724 3.7583 6.74609 3.84619 6.62891C3.93734 6.50846 4.0057 6.36849 4.05127 6.20898C4.1001 6.04622 4.12451 5.86882 4.12451 5.67676C4.12451 5.4847 4.1001 5.30729 4.05127 5.14453C4.0057 4.98177 3.93734 4.8418 3.84619 4.72461C3.75505 4.60417 3.64437 4.51139 3.51416 4.44629C3.38395 4.38118 3.23747 4.34863 3.07471 4.34863C2.85335 4.34863 2.65804 4.40072 2.48877 4.50488C2.32275 4.60579 2.19255 4.736 2.09814 4.89551C2.00374 5.05501 1.95329 5.22266 1.94678 5.39844L1.52197 5.125C1.53174 4.87435 1.58382 4.63672 1.67822 4.41211C1.77588 4.1875 1.90934 3.98893 2.07861 3.81641C2.25114 3.64062 2.45785 3.50391 2.69873 3.40625C2.93962 3.30534 3.21143 3.25488 3.51416 3.25488C3.84619 3.25488 4.13753 3.31836 4.38818 3.44531C4.64209 3.57227 4.85368 3.74642 5.02295 3.96777C5.19222 4.18913 5.31917 4.44466 5.40381 4.73438C5.48844 5.02409 5.53076 5.33333 5.53076 5.66211C5.53076 6.00716 5.4738 6.3278 5.35986 6.62402C5.24919 6.92025 5.08805 7.17904 4.87646 7.40039C4.66813 7.62174 4.41748 7.79427 4.12451 7.91797C3.83154 8.04167 3.50277 8.10352 3.13818 8.10352C2.76058 8.10352 2.41715 8.03516 2.10791 7.89844C1.80192 7.75846 1.53825 7.56315 1.31689 7.3125C1.09554 7.06185 0.924642 6.764 0.804199 6.41895C0.687012 6.07389 0.628418 5.69629 0.628418 5.28613V4.73926C0.628418 4.16634 0.711426 3.64225 0.877441 3.16699C1.04671 2.68848 1.28923 2.27507 1.60498 1.92676C1.92074 1.5752 2.3016 1.30339 2.74756 1.11133C3.19352 0.919271 3.69645 0.823242 4.25635 0.823242Z" fill="white"/>
<path d="M15.105 4.28516V4.62207C15.105 5.16243 15.0317 5.64746 14.8853 6.07715C14.7388 6.50684 14.5321 6.87305 14.2651 7.17578C13.9982 7.47526 13.6792 7.70475 13.3081 7.86426C12.9403 8.02376 12.5317 8.10352 12.0825 8.10352C11.6366 8.10352 11.228 8.02376 10.8569 7.86426C10.4891 7.70475 10.1701 7.47526 9.8999 7.17578C9.62972 6.87305 9.41976 6.50684 9.27002 6.07715C9.12354 5.64746 9.05029 5.16243 9.05029 4.62207V4.28516C9.05029 3.74154 9.12354 3.25651 9.27002 2.83008C9.4165 2.40039 9.62321 2.03418 9.89014 1.73145C10.1603 1.42871 10.4793 1.19759 10.8472 1.03809C11.2183 0.878581 11.6268 0.798828 12.0728 0.798828C12.522 0.798828 12.9305 0.878581 13.2983 1.03809C13.6694 1.19759 13.9884 1.42871 14.2554 1.73145C14.5256 2.03418 14.7339 2.40039 14.8804 2.83008C15.0301 3.25651 15.105 3.74154 15.105 4.28516ZM13.6255 4.62207V4.27539C13.6255 3.89779 13.5913 3.56576 13.5229 3.2793C13.4546 2.99284 13.3537 2.75195 13.2202 2.55664C13.0868 2.36133 12.924 2.21484 12.7319 2.11719C12.5399 2.01628 12.3201 1.96582 12.0728 1.96582C11.8254 1.96582 11.6056 2.01628 11.4136 2.11719C11.2248 2.21484 11.0636 2.36133 10.9302 2.55664C10.8 2.75195 10.7007 2.99284 10.6323 3.2793C10.564 3.56576 10.5298 3.89779 10.5298 4.27539V4.62207C10.5298 4.99642 10.564 5.32845 10.6323 5.61816C10.7007 5.90462 10.8016 6.14714 10.9351 6.3457C11.0685 6.54102 11.2313 6.68913 11.4233 6.79004C11.6154 6.89095 11.8351 6.94141 12.0825 6.94141C12.3299 6.94141 12.5496 6.89095 12.7417 6.79004C12.9338 6.68913 13.0949 6.54102 13.2251 6.3457C13.3553 6.14714 13.4546 5.90462 13.5229 5.61816C13.5913 5.32845 13.6255 4.99642 13.6255 4.62207Z" fill="white"/>
<path d="M18.2544 7.00488C18.4269 7.00488 18.5799 6.97233 18.7134 6.90723C18.8468 6.83887 18.951 6.74447 19.0259 6.62402C19.104 6.50033 19.1447 6.35547 19.1479 6.18945H20.4712C20.4679 6.56055 20.3687 6.89095 20.1733 7.18066C19.978 7.46712 19.716 7.69336 19.3872 7.85938C19.0584 8.02214 18.6906 8.10352 18.2837 8.10352C17.8735 8.10352 17.5155 8.03516 17.2095 7.89844C16.9067 7.76172 16.6545 7.57292 16.4526 7.33203C16.2508 7.08789 16.0994 6.80469 15.9985 6.48242C15.8976 6.1569 15.8472 5.80859 15.8472 5.4375V5.2959C15.8472 4.92155 15.8976 4.57324 15.9985 4.25098C16.0994 3.92546 16.2508 3.64225 16.4526 3.40137C16.6545 3.15723 16.9067 2.9668 17.2095 2.83008C17.5122 2.69336 17.867 2.625 18.2739 2.625C18.7069 2.625 19.0861 2.70801 19.4116 2.87402C19.7404 3.04004 19.9976 3.27767 20.1831 3.58691C20.3719 3.8929 20.4679 4.25586 20.4712 4.67578H19.1479C19.1447 4.5 19.1073 4.34049 19.0356 4.19727C18.9673 4.05404 18.8664 3.9401 18.7329 3.85547C18.6027 3.76758 18.4416 3.72363 18.2495 3.72363C18.0444 3.72363 17.8768 3.76758 17.7466 3.85547C17.6164 3.9401 17.5155 4.05729 17.4438 4.20703C17.3722 4.35352 17.3218 4.52116 17.2925 4.70996C17.2664 4.89551 17.2534 5.09082 17.2534 5.2959V5.4375C17.2534 5.64258 17.2664 5.83952 17.2925 6.02832C17.3185 6.21712 17.3674 6.38477 17.439 6.53125C17.5138 6.67773 17.6164 6.79329 17.7466 6.87793C17.8768 6.96257 18.0461 7.00488 18.2544 7.00488Z" fill="white"/>
<path d="M24.4116 6.74121V2.72266H25.8179V8.00586H24.4946L24.4116 6.74121ZM24.5679 5.65723L24.9829 5.64746C24.9829 5.99902 24.9422 6.32617 24.8608 6.62891C24.7795 6.92839 24.6574 7.1888 24.4946 7.41016C24.3319 7.62826 24.1268 7.79915 23.8794 7.92285C23.632 8.04329 23.3407 8.10352 23.0054 8.10352C22.7482 8.10352 22.5106 8.06771 22.2925 7.99609C22.0776 7.92122 21.8921 7.80566 21.7358 7.64941C21.5828 7.48991 21.4624 7.28646 21.3745 7.03906C21.2899 6.78841 21.2476 6.4873 21.2476 6.13574V2.72266H22.6538V6.14551C22.6538 6.30176 22.6717 6.43359 22.7075 6.54102C22.7466 6.64844 22.8003 6.73633 22.8687 6.80469C22.937 6.87305 23.0168 6.92188 23.1079 6.95117C23.2023 6.98047 23.3065 6.99512 23.4204 6.99512C23.7101 6.99512 23.938 6.93652 24.104 6.81934C24.2733 6.70215 24.3921 6.54264 24.4604 6.34082C24.5321 6.13574 24.5679 5.90788 24.5679 5.65723Z" fill="white"/>
<path d="M28.2983 3.73828V10.0371H26.8921V2.72266H28.1958L28.2983 3.73828ZM31.6431 5.30566V5.4082C31.6431 5.79232 31.5975 6.14876 31.5063 6.47754C31.4185 6.80632 31.2882 7.09277 31.1157 7.33691C30.9432 7.5778 30.7284 7.7666 30.4712 7.90332C30.2173 8.03678 29.9243 8.10352 29.5923 8.10352C29.27 8.10352 28.9901 8.03841 28.7524 7.9082C28.5148 7.77799 28.3146 7.5957 28.1519 7.36133C27.9924 7.1237 27.8638 6.84863 27.7661 6.53613C27.6685 6.22363 27.5936 5.88835 27.5415 5.53027V5.26172C27.5936 4.8776 27.6685 4.52604 27.7661 4.20703C27.8638 3.88477 27.9924 3.60645 28.1519 3.37207C28.3146 3.13444 28.5132 2.95052 28.7476 2.82031C28.9852 2.6901 29.2635 2.625 29.5825 2.625C29.9178 2.625 30.2124 2.68848 30.4663 2.81543C30.7235 2.94238 30.9383 3.12467 31.1108 3.3623C31.2866 3.59993 31.4185 3.88314 31.5063 4.21191C31.5975 4.54069 31.6431 4.90527 31.6431 5.30566ZM30.2319 5.4082V5.30566C30.2319 5.08105 30.2124 4.87435 30.1733 4.68555C30.1375 4.49349 30.0789 4.32585 29.9976 4.18262C29.9194 4.03939 29.8153 3.92871 29.6851 3.85059C29.5581 3.76921 29.4035 3.72852 29.2212 3.72852C29.0291 3.72852 28.8647 3.75944 28.728 3.82129C28.5946 3.88314 28.4855 3.97266 28.4009 4.08984C28.3162 4.20703 28.2528 4.34701 28.2104 4.50977C28.1681 4.67253 28.1421 4.85645 28.1323 5.06152V5.74023C28.1486 5.98112 28.1942 6.19759 28.269 6.38965C28.3439 6.57845 28.4595 6.72819 28.6157 6.83887C28.772 6.94954 28.9771 7.00488 29.231 7.00488C29.4165 7.00488 29.5728 6.96419 29.6997 6.88281C29.8267 6.79818 29.9292 6.68262 30.0073 6.53613C30.0887 6.38965 30.1457 6.22038 30.1782 6.02832C30.214 5.83626 30.2319 5.62956 30.2319 5.4082Z" fill="white"/>
<path d="M35.3687 6.81445V4.46094C35.3687 4.29167 35.341 4.14681 35.2856 4.02637C35.2303 3.90267 35.144 3.80664 35.0269 3.73828C34.9129 3.66992 34.7648 3.63574 34.5825 3.63574C34.4263 3.63574 34.2912 3.66341 34.1772 3.71875C34.0633 3.77083 33.9754 3.84733 33.9136 3.94824C33.8517 4.0459 33.8208 4.16146 33.8208 4.29492H32.4146C32.4146 4.07031 32.4666 3.8571 32.5708 3.65527C32.675 3.45345 32.8263 3.27604 33.0249 3.12305C33.2235 2.9668 33.4595 2.84473 33.7329 2.75684C34.0096 2.66895 34.3188 2.625 34.6606 2.625C35.0708 2.625 35.4354 2.69336 35.7544 2.83008C36.0734 2.9668 36.3241 3.17188 36.5063 3.44531C36.6919 3.71875 36.7847 4.06055 36.7847 4.4707V6.73145C36.7847 7.02116 36.8026 7.25879 36.8384 7.44434C36.8742 7.62663 36.9263 7.78613 36.9946 7.92285V8.00586H35.5737C35.5054 7.86263 35.4533 7.68359 35.4175 7.46875C35.3849 7.25065 35.3687 7.03255 35.3687 6.81445ZM35.5542 4.78809L35.564 5.58398H34.7778C34.5923 5.58398 34.4312 5.60514 34.2944 5.64746C34.1577 5.68978 34.0454 5.75 33.9575 5.82812C33.8696 5.90299 33.8045 5.99089 33.7622 6.0918C33.7231 6.19271 33.7036 6.30339 33.7036 6.42383C33.7036 6.54427 33.7313 6.65332 33.7866 6.75098C33.842 6.84538 33.9217 6.92025 34.0259 6.97559C34.13 7.02767 34.2521 7.05371 34.3921 7.05371C34.6037 7.05371 34.7876 7.01139 34.9438 6.92676C35.1001 6.84212 35.2205 6.73796 35.3052 6.61426C35.3931 6.49056 35.4386 6.37337 35.4419 6.2627L35.813 6.8584C35.7609 6.99186 35.6893 7.13021 35.5981 7.27344C35.5103 7.41667 35.3979 7.55176 35.2612 7.67871C35.1245 7.80241 34.9601 7.90495 34.7681 7.98633C34.576 8.06445 34.3481 8.10352 34.0845 8.10352C33.7492 8.10352 33.4448 8.03678 33.1714 7.90332C32.9012 7.7666 32.6864 7.57943 32.5269 7.3418C32.3706 7.10091 32.2925 6.82747 32.2925 6.52148C32.2925 6.24479 32.3446 5.99902 32.4487 5.78418C32.5529 5.56934 32.7059 5.38867 32.9077 5.24219C33.1128 5.09245 33.3683 4.98014 33.6743 4.90527C33.9803 4.82715 34.3351 4.78809 34.7388 4.78809H35.5542Z" fill="white"/>
<path d="M40.9888 6.85352V0.505859H42.4048V8.00586H41.1304L40.9888 6.85352ZM37.6489 5.42773V5.3252C37.6489 4.92155 37.6945 4.55534 37.7856 4.22656C37.8768 3.89453 38.0103 3.6097 38.186 3.37207C38.3618 3.13444 38.5783 2.95052 38.8354 2.82031C39.0926 2.6901 39.3856 2.625 39.7144 2.625C40.0236 2.625 40.2938 2.6901 40.5249 2.82031C40.7593 2.95052 40.9578 3.13607 41.1206 3.37695C41.2866 3.61458 41.4201 3.89616 41.521 4.22168C41.6219 4.54395 41.6951 4.89714 41.7407 5.28125V5.50586C41.6951 5.8737 41.6219 6.21549 41.521 6.53125C41.4201 6.84701 41.2866 7.1237 41.1206 7.36133C40.9578 7.5957 40.7593 7.77799 40.5249 7.9082C40.2905 8.03841 40.0171 8.10352 39.7046 8.10352C39.3758 8.10352 39.0828 8.03678 38.8257 7.90332C38.5718 7.76986 38.3569 7.58268 38.1812 7.3418C38.0086 7.10091 37.8768 6.81771 37.7856 6.49219C37.6945 6.16667 37.6489 5.81185 37.6489 5.42773ZM39.0552 5.3252V5.42773C39.0552 5.64583 39.0715 5.84928 39.104 6.03809C39.1398 6.22689 39.1968 6.39453 39.2749 6.54102C39.3563 6.68424 39.4604 6.79655 39.5874 6.87793C39.7176 6.95605 39.8755 6.99512 40.061 6.99512C40.3019 6.99512 40.5005 6.94141 40.6567 6.83398C40.813 6.72331 40.9318 6.57194 41.0132 6.37988C41.0978 6.18783 41.1466 5.96647 41.1597 5.71582V5.07617C41.1499 4.87109 41.1206 4.68717 41.0718 4.52441C41.0262 4.3584 40.9578 4.2168 40.8667 4.09961C40.7788 3.98242 40.6681 3.89128 40.5347 3.82617C40.4045 3.76107 40.2498 3.72852 40.0708 3.72852C39.8885 3.72852 39.7323 3.77083 39.6021 3.85547C39.4718 3.93685 39.366 4.04915 39.2847 4.19238C39.2065 4.33561 39.1479 4.50488 39.1089 4.7002C39.0731 4.89225 39.0552 5.10059 39.0552 5.3252Z" fill="white"/>
<path d="M43.2788 5.41797V5.31543C43.2788 4.92806 43.3341 4.57161 43.4448 4.24609C43.5555 3.91732 43.7166 3.63249 43.9282 3.3916C44.1398 3.15072 44.4002 2.96354 44.7095 2.83008C45.0187 2.69336 45.3735 2.625 45.7739 2.625C46.1743 2.625 46.5308 2.69336 46.8433 2.83008C47.1558 2.96354 47.4178 3.15072 47.6294 3.3916C47.8442 3.63249 48.007 3.91732 48.1177 4.24609C48.2284 4.57161 48.2837 4.92806 48.2837 5.31543V5.41797C48.2837 5.80208 48.2284 6.15853 48.1177 6.4873C48.007 6.81283 47.8442 7.09766 47.6294 7.3418C47.4178 7.58268 47.1574 7.76986 46.8481 7.90332C46.5389 8.03678 46.1841 8.10352 45.7837 8.10352C45.3833 8.10352 45.0269 8.03678 44.7144 7.90332C44.4051 7.76986 44.1431 7.58268 43.9282 7.3418C43.7166 7.09766 43.5555 6.81283 43.4448 6.4873C43.3341 6.15853 43.2788 5.80208 43.2788 5.41797ZM44.6851 5.31543V5.41797C44.6851 5.63932 44.7046 5.84603 44.7437 6.03809C44.7827 6.23014 44.8446 6.39941 44.9292 6.5459C45.0171 6.68913 45.131 6.80143 45.271 6.88281C45.411 6.96419 45.5819 7.00488 45.7837 7.00488C45.979 7.00488 46.1466 6.96419 46.2866 6.88281C46.4266 6.80143 46.5389 6.68913 46.6235 6.5459C46.7082 6.39941 46.77 6.23014 46.8091 6.03809C46.8514 5.84603 46.8726 5.63932 46.8726 5.41797V5.31543C46.8726 5.10059 46.8514 4.89876 46.8091 4.70996C46.77 4.5179 46.7065 4.34863 46.6187 4.20215C46.534 4.05241 46.4217 3.93522 46.2817 3.85059C46.1418 3.76595 45.9725 3.72363 45.7739 3.72363C45.5754 3.72363 45.4061 3.76595 45.2661 3.85059C45.1294 3.93522 45.0171 4.05241 44.9292 4.20215C44.8446 4.34863 44.7827 4.5179 44.7437 4.70996C44.7046 4.89876 44.6851 5.10059 44.6851 5.31543Z" fill="white"/>
<path d="M52.0044 6.5459C52.0044 6.44499 51.9751 6.35384 51.9165 6.27246C51.8579 6.19108 51.7489 6.11621 51.5894 6.04785C51.4331 5.97624 51.2069 5.91113 50.9106 5.85254C50.6437 5.79395 50.3947 5.7207 50.1636 5.63281C49.9357 5.54167 49.7371 5.43262 49.5679 5.30566C49.4019 5.17871 49.2716 5.02897 49.1772 4.85645C49.0828 4.68066 49.0356 4.48047 49.0356 4.25586C49.0356 4.03451 49.0828 3.82617 49.1772 3.63086C49.2749 3.43555 49.4132 3.26302 49.5923 3.11328C49.7746 2.96029 49.9959 2.84147 50.2563 2.75684C50.52 2.66895 50.8162 2.625 51.145 2.625C51.604 2.625 51.9979 2.69824 52.3267 2.84473C52.6587 2.99121 52.9126 3.19303 53.0884 3.4502C53.2674 3.7041 53.3569 3.99382 53.3569 4.31934H51.9507C51.9507 4.18262 51.9214 4.06055 51.8628 3.95312C51.8075 3.84245 51.7196 3.75618 51.5991 3.69434C51.4819 3.62923 51.3289 3.59668 51.1401 3.59668C50.9839 3.59668 50.8488 3.62435 50.7349 3.67969C50.6209 3.73177 50.533 3.80339 50.4712 3.89453C50.4126 3.98242 50.3833 4.08008 50.3833 4.1875C50.3833 4.26888 50.3996 4.34212 50.4321 4.40723C50.4679 4.46908 50.5249 4.52604 50.603 4.57812C50.6812 4.63021 50.7821 4.67904 50.9058 4.72461C51.0327 4.76693 51.189 4.80599 51.3745 4.8418C51.7554 4.91992 52.0955 5.02246 52.395 5.14941C52.6945 5.27311 52.9321 5.44238 53.1079 5.65723C53.2837 5.86882 53.3716 6.14714 53.3716 6.49219C53.3716 6.72656 53.3195 6.94141 53.2153 7.13672C53.1112 7.33203 52.9614 7.50293 52.7661 7.64941C52.5708 7.79264 52.3364 7.90495 52.063 7.98633C51.7928 8.06445 51.4884 8.10352 51.1499 8.10352C50.6584 8.10352 50.2417 8.01562 49.8999 7.83984C49.5614 7.66406 49.3042 7.44108 49.1284 7.1709C48.9559 6.89746 48.8696 6.61751 48.8696 6.33105H50.2026C50.2091 6.52311 50.258 6.67773 50.3491 6.79492C50.4435 6.91211 50.5623 6.99674 50.7056 7.04883C50.8521 7.10091 51.0099 7.12695 51.1792 7.12695C51.3615 7.12695 51.5129 7.10254 51.6333 7.05371C51.7537 7.00163 51.8449 6.93327 51.9067 6.84863C51.9718 6.76074 52.0044 6.65983 52.0044 6.5459Z" fill="white"/>
</svg>
