<svg width="8" height="10" viewBox="0 0 8 10" fill="none" xmlns="http://www.w3.org/2000/svg">
<path d="M3.99038 9.27098C3.01106 9.27716 2.04197 9.19679 1.08312 9.01906C0.4655 8.9047 0.0492015 8.45805 0.00996031 7.89395C-0.0753467 6.66375 0.383605 5.66382 1.53013 4.96526C1.71269 4.85398 1.6035 4.79371 1.53184 4.70562C0.707772 3.68869 0.723127 2.35494 1.56767 1.35501C2.58453 0.154169 4.49199 -0.0853805 5.83302 0.821818C7.18257 1.73365 7.47773 3.44759 6.48305 4.67625C6.34486 4.84626 6.37727 4.90344 6.55301 5.01626C7.70294 5.755 8.11242 6.79511 7.97422 8.03304C7.91962 8.51833 7.47773 8.91706 6.92494 9.01906C5.95586 9.19834 4.97653 9.2787 3.99038 9.27098ZM4.00062 7.86922C4.76156 7.86304 5.51909 7.81513 6.27149 7.70386C6.40457 7.68377 6.45064 7.64667 6.45234 7.52304C6.46599 6.72557 5.83472 6.01001 4.95947 5.891C4.33844 5.806 3.70717 5.80909 3.08784 5.88482C2.1887 5.99455 1.57961 6.65447 1.54549 7.47822C1.53866 7.62658 1.5762 7.68222 1.75705 7.70849C2.50092 7.81513 3.24821 7.86304 4.00062 7.86922ZM3.99209 4.44289C4.83663 4.44598 5.51226 3.84478 5.5242 3.07977C5.53615 2.30548 4.86222 1.68111 4.00745 1.67647C3.15608 1.67183 2.47021 2.29312 2.47363 3.06586C2.47874 3.83087 3.14926 4.4398 3.99209 4.44289Z" fill="black"/>
</svg>
